<?xml version="1.0" encoding="utf-8"?>
<!-- Generator: Adobe Illustrator 23.0.1, SVG Export Plug-In . SVG Version: 6.00 Build 0)  -->
<svg version="1.1" xmlns="http://www.w3.org/2000/svg" xmlns:xlink="http://www.w3.org/1999/xlink" x="0px" y="0px"
	 viewBox="0 0 393.5 240.9" style="enable-background:new 0 0 393.5 240.9;" xml:space="preserve">
<style type="text/css">
	.st0{display:none;}
	.st1{fill:#CFD4FA;}
	.st2{fill:none;}
	.st3{fill:#9797FB;}
	.st4{fill:#7777EC;}
	.st5{fill:#EA4272;}
	.st6{fill:#A2A3EC;}
	.st7{fill:#FFFFFF;}
	.st8{fill:#4341B7;}
	.st9{fill:#B8B9FF;}
	.st10{fill:#574ECB;}
	.st11{fill:#1A1947;}
	.st12{clip-path:url(#SVGID_2_);fill:#F9F6FB;}
	.st13{clip-path:url(#SVGID_2_);fill:#9797FB;}
	.st14{clip-path:url(#SVGID_2_);fill:#BDCAFE;}
	.st15{fill:#FFFFFF;stroke:#FFFFFF;stroke-width:1.0942;stroke-miterlimit:10;}
	.st16{fill:#DFE2FF;}
	.st17{fill:#AEAEFC;}
	.st18{fill:#FF7BAE;}
	.st19{fill:#3D3AAF;}
	.st20{fill:#E87D91;}
	.st21{fill:#F990A1;}
	.st22{fill:#E6E4F9;}
	.st23{fill:#31193B;}
	.st24{fill:none;stroke:#31193B;stroke-width:0.1108;stroke-miterlimit:10;}
	.st25{opacity:0.6;fill:#FAFBF2;}
	.st26{fill:#4F2CAF;}
	.st27{fill:#F3A9B8;}
	.st28{fill:#FF5E4C;}
	.st29{fill:none;stroke:#31193B;stroke-width:0.1107;stroke-miterlimit:10;}
	.st30{fill:none;stroke:#4341B7;stroke-width:0.8206;stroke-miterlimit:10;}
</style>
<g id="BACKGROUND" class="st0">
</g>
<g id="OBJECTS">
	<g>
		<g>
			<path class="st1" d="M267.3,219.5h112.9c0,0,9.1-17.2-8.4-31.3c-17.5-14.1-7.1-29.2-20.1-42.2c-13-13-34-3.7-42.5,12.7
				C300.7,175.2,257.2,177.7,267.3,219.5z"/>
			<path class="st1" d="M116.6,219.5H13.2c0,0-8.3-15.8,7.7-28.6s6.5-26.8,18.4-38.7c11.9-11.9,31.2-3.4,38.9,11.6
				C86,178.9,125.8,181.2,116.6,219.5z"/>
			<path class="st1" d="M234.2,219.5H130.8c0,0-8.3-15.8,7.7-28.6c16-12.9,6.5-26.8,18.4-38.7c11.9-11.9,31.2-3.4,38.9,11.6
				C203.6,178.9,243.4,181.2,234.2,219.5z"/>
			<g>
				<g>
					<path class="st2" d="M349.1,202.3c0,0,0-0.4,0-1c0,0,0,0,0,0C349.1,202,349.1,202.3,349.1,202.3z"/>
					<path class="st2" d="M357.6,205c0.1-0.3,0.4-1.3,0.8-2.7c0,0,0,0-0.1,0C357.9,203.7,357.7,204.6,357.6,205z"/>
					<path class="st2" d="M338.4,194.7c-0.1-0.6-0.2-1.3-0.4-2c0,0-0.1,0-0.1,0C338.1,193.4,338.2,194,338.4,194.7z"/>
					<path class="st3" d="M364.1,173.8c-4.3-0.9-8.4-1.5-12.3-1.9c-0.2,1.2-0.4,2.4-0.5,3.6c3.9,0.3,8,0.9,12.3,1.8
						C363.8,176.1,364,175,364.1,173.8z"/>
					<path class="st3" d="M346.9,162.6c-0.2-1.3-0.4-2.5-0.6-3.7c-4.4-0.2-8.5,0-12,0.2c0,1.2,0,2.4,0,3.7
						C338,162.5,342.3,162.4,346.9,162.6z"/>
					<path class="st3" d="M343.6,149.8c-1.3-2.6-2.9-3.9-4.8-3.3c-1.4,0.4-2.4,1.7-3.1,3.5C338.1,149.9,340.8,149.8,343.6,149.8z"/>
					<path class="st3" d="M346.2,158.3c-0.3-1.3-0.6-2.6-0.9-3.7c-3.9-0.1-7.5,0-10.8,0.2c-0.1,1.2-0.2,2.4-0.3,3.7
						C337.8,158.3,341.8,158.2,346.2,158.3z"/>
					<path class="st3" d="M360.3,194.2c-3.7-0.6-7.3-1.1-10.7-1.3c-0.1,1.3-0.2,2.6-0.2,3.7c3.2,0.2,6.6,0.6,10.1,1.2
						C359.7,196.6,360,195.4,360.3,194.2z"/>
					<path class="st3" d="M364.6,169.7c-4.2-0.9-8.2-1.5-12-1.9c-0.2,1.2-0.5,2.4-0.7,3.6c3.9,0.4,8,0.9,12.3,1.9
						C364.3,172,364.5,170.8,364.6,169.7z"/>
					<path class="st3" d="M347.5,166.8c-0.1-1.3-0.3-2.5-0.5-3.7c-4.7-0.2-9-0.1-12.7,0.2c0,1.2,0.1,2.4,0.2,3.7
						C338.3,166.7,342.7,166.6,347.5,166.8z"/>
					<path class="st3" d="M359.3,198.2c-3.5-0.6-6.8-0.9-10-1.2c-0.1,1.5-0.1,2.8-0.2,3.7c3,0.2,6,0.5,9.3,1
						C358.7,200.7,359,199.6,359.3,198.2z"/>
					<path class="st3" d="M345.2,154.1c-0.4-1.4-0.8-2.6-1.3-3.7c-3,0-5.8,0-8.4,0.2c-0.4,1.1-0.6,2.3-0.8,3.7
						C337.8,154.1,341.3,154,345.2,154.1z"/>
					<path class="st3" d="M362.8,182c-4.2-0.8-8.3-1.4-12.1-1.7c-0.1,1.2-0.3,2.4-0.4,3.6c3.7,0.3,7.7,0.8,11.8,1.6
						C362.4,184.3,362.6,183.2,362.8,182z"/>
					<path class="st3" d="M362,186c-4.1-0.8-8.1-1.3-11.8-1.6c-0.1,1.2-0.2,2.5-0.3,3.6c3.6,0.3,7.4,0.7,11.4,1.5
						C361.6,188.4,361.8,187.2,362,186z"/>
					<path class="st3" d="M349.1,192.3c0-1.2-0.1-2.4-0.1-3.7c-4.2-0.3-8.2-0.3-11.7-0.1c0.2,1.3,0.4,2.5,0.7,3.6
						C341.3,192,345,192,349.1,192.3z"/>
					<path class="st3" d="M361.2,190.1c-3.9-0.7-7.7-1.2-11.3-1.4c-0.1,1.3-0.2,2.5-0.3,3.7c3.4,0.2,7,0.7,10.8,1.3
						C360.7,192.5,360.9,191.3,361.2,190.1z"/>
					<path class="st3" d="M363.5,177.9c-4.3-0.9-8.4-1.5-12.3-1.8c-0.2,1.2-0.3,2.4-0.5,3.6c3.8,0.3,7.9,0.8,12.2,1.7
						C363.1,180.2,363.3,179.1,363.5,177.9z"/>
					<path class="st3" d="M348,171.1c-0.1-1.2-0.2-2.5-0.4-3.7c-4.8-0.2-9.2-0.1-13.1,0.2c0.1,1.2,0.2,2.4,0.3,3.7
						C338.7,170.9,343.1,170.8,348,171.1z"/>
					<path class="st3" d="M361,152.5c-1.6-0.3-3,0.7-4.3,2.6c2.4,0.3,4.9,0.8,7.5,1.3C363.6,154.2,362.6,152.8,361,152.5z"/>
					<path class="st3" d="M349,188c0-1.2-0.1-2.4-0.1-3.7c-4.5-0.3-8.6-0.2-12.3,0c0.2,1.2,0.4,2.5,0.6,3.6
						C340.7,187.8,344.7,187.8,349,188z"/>
					<path class="st3" d="M348.8,183.8c-0.1-1.2-0.1-2.4-0.2-3.7c-4.6-0.3-8.9-0.2-12.7,0c0.2,1.2,0.4,2.4,0.5,3.6
						C340.2,183.6,344.3,183.5,348.8,183.8z"/>
					<path class="st3" d="M348.6,179.6c-0.1-1.2-0.1-2.5-0.2-3.7c-4.8-0.3-9.2-0.2-13,0.1c0.2,1.2,0.3,2.4,0.5,3.6
						C339.6,179.4,343.9,179.3,348.6,179.6z"/>
					<path class="st3" d="M348.3,175.3c-0.1-1.2-0.2-2.5-0.3-3.7c-4.8-0.3-9.3-0.2-13.1,0.1c0.1,1.2,0.3,2.4,0.4,3.6
						C339.1,175.1,343.5,175.1,348.3,175.3z"/>
					<path class="st3" d="M324.6,165.2c-1.4,0.3-2.3,1.6-2.7,3.6c1.8-0.4,4.1-0.8,6.9-1.2C327.5,165.8,326.1,164.9,324.6,165.2z"/>
					<path class="st3" d="M364.9,165.5c-4-0.9-7.8-1.5-11.4-1.9c-0.3,1.1-0.6,2.3-0.8,3.6c3.8,0.4,7.8,1,12,1.9
						C364.7,167.9,364.8,166.7,364.9,165.5z"/>
					<path class="st3" d="M369.3,200.4c-3.3-0.9-6.5-1.6-9.7-2.1c-0.4,1.3-0.8,2.5-1.1,3.5c2.9,0.5,6,1.1,9.1,1.8
						C368.2,202.5,368.7,201.5,369.3,200.4z"/>
					<path class="st3" d="M336.9,188.5c-5,0.3-9.1,0.8-12.2,1.4c0.3,1.2,0.7,2.3,1.1,3.5c3.2-0.5,7.3-1,12.1-1.3
						C337.5,191,337.2,189.8,336.9,188.5z"/>
					<path class="st3" d="M335.7,184.4c-5,0.3-9.2,1-12.2,1.5c0.3,1.1,0.6,2.3,0.9,3.5c3.1-0.6,7.3-1.1,12.2-1.4
						C336.4,186.8,336.1,185.6,335.7,184.4z"/>
					<path class="st3" d="M364.4,156.9c-2.7-0.6-5.4-1-7.9-1.4c-0.6,1-1.1,2.1-1.6,3.5c3.2,0.4,6.6,0.9,10,1.7
						C364.8,159.3,364.6,158.1,364.4,156.9z"/>
					<path class="st3" d="M337.2,217.4c0.5,0.8,1.1,1.5,1.6,2.2h19.8c0,0,0.2-0.3,0.6-0.9C350.9,217.3,343.4,217.1,337.2,217.4z"/>
					<path class="st3" d="M334.5,180.2c-5,0.4-9,1-11.8,1.6c0.2,1.1,0.5,2.3,0.8,3.5c3-0.6,7.1-1.2,12.2-1.5
						C335.2,182.6,334.9,181.4,334.5,180.2z"/>
					<path class="st3" d="M374.5,189.3c-3.6-1.2-7.2-2.1-10.7-2.9c-0.5,1.1-0.9,2.3-1.3,3.4c3.4,0.7,7,1.5,10.6,2.7
						C373.6,191.4,374.1,190.3,374.5,189.3z"/>
					<path class="st3" d="M349.1,200.7c0-0.9,0-2.2,0-3.7c-8.9-0.6-16.4,0.1-21.8,0.9c0.4,1.2,0.9,2.3,1.4,3.5
						C334,200.7,341,200.2,349.1,200.7z"/>
					<path class="st3" d="M376,185.5c-3.6-1.2-7.1-2.2-10.5-3c-0.5,1.1-1,2.2-1.4,3.3c3.5,0.7,7,1.7,10.7,2.9
						C375.2,187.7,375.6,186.6,376,185.5z"/>
					<path class="st3" d="M361.4,214.9c0.6-1,1.2-2.1,1.9-3.3c-12-2.5-22.7-2.4-30.6-1.7c0.6,1.2,1.3,2.4,2,3.5
						C341.9,212.9,351.1,213,361.4,214.9z"/>
					<path class="st3" d="M372.9,193c-3.6-1.1-7.1-2-10.5-2.6c-0.4,1.2-0.8,2.3-1.2,3.4c3.3,0.6,6.8,1.4,10.3,2.4
						C371.9,195.1,372.4,194,372.9,193z"/>
					<path class="st3" d="M377.3,181.8c-3.4-1.2-6.7-2.2-10-3c-0.5,1-1.1,2.2-1.6,3.3c3.4,0.8,6.9,1.8,10.5,3
						C376.6,183.9,377,182.8,377.3,181.8z"/>
					<path class="st3" d="M377,170.5c-1.4-0.8-2.8-0.4-4.3,0.8c2,0.6,3.9,1.3,5.9,2C378.4,171.9,377.9,171,377,170.5z"/>
					<path class="st3" d="M349.1,196.5c0-1.1,0-2.3-0.1-3.7c-4-0.3-7.7-0.3-11.1-0.1c0.1,0.7,0.3,1.3,0.4,2c-0.1-0.6-0.3-1.3-0.5-2
						c-4.8,0.2-8.8,0.7-12,1.2c0.4,1.2,0.8,2.3,1.2,3.5C332.5,196.6,340.2,195.9,349.1,196.5z"/>
					<path class="st3" d="M329.2,168.1c-3,0.4-5.5,0.9-7.3,1.3c-0.2,1.1-0.3,2.3-0.2,3.7c2.2-0.5,5.5-1.1,9.5-1.5
						C330.5,170.2,329.8,169.1,329.2,168.1z"/>
					<path class="st3" d="M331.4,172.1c-4.2,0.4-7.5,1.1-9.8,1.6c0,1.1,0.1,2.3,0.3,3.6c2.5-0.6,6.3-1.2,11-1.6
						C332.4,174.3,331.9,173.2,331.4,172.1z"/>
					<path class="st3" d="M365.6,207.3c0.6-1,1.2-2.1,1.7-3.3c-3.1-0.8-6.1-1.4-9-1.8c-0.4,1.4-0.7,2.4-0.8,2.7
						c0.1-0.3,0.3-1.3,0.7-2.7c-3.2-0.5-6.2-0.8-9.2-1c0,0.7,0,1,0,1s0-0.4,0-1c-8-0.5-15,0-20.3,0.7c0.5,1.2,1,2.3,1.5,3.5
						C339,204.4,351.5,204.1,365.6,207.3z"/>
					<path class="st3" d="M363.5,211.1c0.6-1,1.2-2.1,1.8-3.3c-13.9-3.2-26.2-2.9-34.7-1.9c0.6,1.2,1.1,2.4,1.7,3.5
						C340.4,208.7,351.3,208.6,363.5,211.1z"/>
					<path class="st3" d="M364.9,161.3c-3.5-0.8-6.9-1.4-10.2-1.7c-0.4,1.1-0.7,2.3-1.1,3.6c3.6,0.4,7.4,1,11.3,1.8
						C365,163.7,365,162.4,364.9,161.3z"/>
					<path class="st3" d="M359.5,218.1c0.4-0.7,1-1.6,1.6-2.7c-10-1.8-19-1.9-26.1-1.4c0.6,1,1.2,2,1.9,2.9
						C343.2,216.5,351,216.7,359.5,218.1z"/>
					<path class="st3" d="M333.1,176.1c-4.7,0.4-8.5,1.1-11.1,1.7c0.2,1.1,0.3,2.3,0.6,3.5c2.8-0.6,6.8-1.2,11.8-1.6
						C333.9,178.5,333.5,177.3,333.1,176.1z"/>
					<path class="st3" d="M378.3,177.9c-3-1.1-6-2.1-8.9-2.9c-0.6,1-1.3,2-1.9,3.2c3.2,0.8,6.5,1.8,9.9,3
						C377.8,180.1,378.1,179,378.3,177.9z"/>
					<path class="st3" d="M378.7,173.8c-2.2-0.8-4.3-1.6-6.5-2.2c-0.8,0.8-1.6,1.8-2.5,2.9c2.8,0.8,5.7,1.7,8.7,2.8
						C378.6,176,378.7,174.9,378.7,173.8z"/>
					<path class="st3" d="M371.1,196.7c-3.5-1-6.9-1.8-10.2-2.4c-0.4,1.2-0.8,2.4-1.2,3.5c3.2,0.5,6.4,1.2,9.8,2.1
						C370.1,198.8,370.6,197.7,371.1,196.7z"/>
					<path class="st4" d="M348,171.6c0-0.2,0-0.4-0.1-0.5c-4.8-0.3-9.3-0.2-13.1,0.1c0,0.2,0,0.4,0.1,0.5
						C338.7,171.5,343.2,171.4,348,171.6z"/>
					<path class="st4" d="M364.2,173.2c-4.3-0.9-8.4-1.5-12.3-1.9c0,0.2-0.1,0.4-0.1,0.5c3.9,0.4,8,0.9,12.3,1.9
						C364.1,173.6,364.2,173.4,364.2,173.2z"/>
					<path class="st4" d="M331.1,171.5c-4,0.4-7.3,1-9.5,1.5c0,0.2,0,0.4,0,0.6c2.3-0.5,5.6-1.1,9.8-1.6
						C331.3,171.9,331.2,171.7,331.1,171.5z"/>
					<path class="st4" d="M378.4,177.4c-2.9-1.1-5.8-2-8.7-2.8c-0.1,0.2-0.2,0.3-0.3,0.5c2.9,0.8,5.9,1.7,8.9,2.9
						C378.3,177.7,378.4,177.6,378.4,177.4z"/>
					<path class="st4" d="M378.6,173.2c-2-0.7-4-1.4-5.9-2c-0.2,0.1-0.3,0.3-0.5,0.4c2.1,0.6,4.3,1.4,6.5,2.2
						C378.6,173.6,378.6,173.4,378.6,173.2z"/>
					<path class="st4" d="M364.6,169.1c-4.2-0.9-8.2-1.5-12-1.9c0,0.2-0.1,0.4-0.1,0.5c3.8,0.4,7.8,1,12,1.9
						C364.6,169.5,364.6,169.3,364.6,169.1z"/>
					<path class="st4" d="M328.8,167.6c-2.8,0.4-5.1,0.8-6.9,1.2c0,0.2-0.1,0.4-0.1,0.6c1.8-0.4,4.3-0.9,7.3-1.3
						C329,167.9,328.9,167.8,328.8,167.6z"/>
					<path class="st4" d="M347.6,167.4c0-0.2,0-0.4-0.1-0.6c-4.8-0.2-9.2-0.1-13,0.2c0,0.2,0,0.4,0,0.5
						C338.4,167.3,342.7,167.2,347.6,167.4z"/>
					<path class="st4" d="M376.2,185c-3.6-1.2-7.1-2.2-10.5-3c-0.1,0.2-0.2,0.3-0.2,0.5c3.4,0.8,6.9,1.8,10.5,3
						C376.1,185.4,376.1,185.2,376.2,185z"/>
					<path class="st4" d="M348.6,180.1c0-0.2,0-0.4,0-0.5c-4.7-0.3-9-0.2-12.8,0c0,0.2,0.1,0.4,0.1,0.5
						C339.7,179.9,344,179.9,348.6,180.1z"/>
					<path class="st4" d="M362.9,181.4c-4.2-0.8-8.3-1.4-12.2-1.7c0,0.2,0,0.4-0.1,0.5c3.8,0.3,7.9,0.8,12.1,1.7
						C362.8,181.8,362.9,181.6,362.9,181.4z"/>
					<path class="st4" d="M334.3,179.7c-4.9,0.4-9,1-11.8,1.6c0,0.2,0.1,0.4,0.1,0.5c2.8-0.6,6.8-1.3,11.8-1.6
						C334.4,180.1,334.4,179.9,334.3,179.7z"/>
					<path class="st4" d="M348.3,175.9c0-0.2,0-0.4,0-0.5c-4.8-0.3-9.2-0.2-13,0.1c0,0.2,0,0.4,0.1,0.5
						C339.2,175.7,343.6,175.6,348.3,175.9z"/>
					<path class="st4" d="M332.8,175.6c-4.7,0.4-8.4,1.1-11,1.6c0,0.2,0.1,0.4,0.1,0.5c2.6-0.6,6.3-1.2,11.1-1.7
						C333,175.9,332.9,175.8,332.8,175.6z"/>
					<path class="st4" d="M377.5,181.3c-3.4-1.2-6.7-2.2-9.9-3c-0.1,0.2-0.2,0.3-0.3,0.5c3.3,0.8,6.6,1.8,10,3
						C377.3,181.6,377.4,181.4,377.5,181.3z"/>
					<path class="st4" d="M363.6,177.3c-4.3-0.9-8.4-1.5-12.3-1.8c0,0.2,0,0.4-0.1,0.5c3.9,0.3,8,0.9,12.3,1.8
						C363.5,177.7,363.6,177.5,363.6,177.3z"/>
					<path class="st4" d="M345.3,154.6c-0.1-0.2-0.1-0.4-0.2-0.6c-3.8-0.1-7.4,0-10.6,0.2c0,0.2,0,0.4-0.1,0.6
						C337.8,154.6,341.4,154.5,345.3,154.6z"/>
					<path class="st4" d="M364.2,156.4c-2.6-0.5-5.1-1-7.5-1.3c-0.1,0.2-0.2,0.3-0.3,0.5c2.6,0.4,5.2,0.8,7.9,1.4
						C364.3,156.7,364.3,156.5,364.2,156.4z"/>
					<path class="st4" d="M343.9,150.4c-0.1-0.2-0.2-0.4-0.3-0.5c-2.8,0-5.5,0-7.9,0.2c-0.1,0.2-0.1,0.4-0.2,0.6
						C338,150.4,340.9,150.3,343.9,150.4z"/>
					<path class="st4" d="M364.9,165c-3.9-0.9-7.7-1.5-11.3-1.8c0,0.2-0.1,0.4-0.1,0.5c3.6,0.4,7.4,1,11.4,1.9
						C364.9,165.3,364.9,165.1,364.9,165z"/>
					<path class="st4" d="M347,163.1c0-0.2-0.1-0.4-0.1-0.5c-4.7-0.2-8.9-0.1-12.7,0.2c0,0.2,0,0.4,0,0.5
						C338,163.1,342.3,162.9,347,163.1z"/>
					<path class="st4" d="M364.9,160.7c-3.4-0.8-6.8-1.3-10-1.7c-0.1,0.2-0.1,0.3-0.2,0.5c3.3,0.4,6.7,1,10.2,1.7
						C364.9,161.1,364.9,160.9,364.9,160.7z"/>
					<path class="st4" d="M346.3,158.9c0-0.2-0.1-0.4-0.1-0.5c-4.4-0.2-8.4,0-11.9,0.2c0,0.2,0,0.4,0,0.5
						C337.8,158.9,341.9,158.7,346.3,158.9z"/>
					<path class="st4" d="M361.3,189.6c-4-0.7-7.8-1.2-11.4-1.5c0,0.2,0,0.4,0,0.5c3.6,0.3,7.4,0.7,11.3,1.4
						C361.2,189.9,361.3,189.7,361.3,189.6z"/>
					<path class="st4" d="M349,188.6c0-0.2,0-0.4,0-0.5c-4.3-0.3-8.2-0.3-11.8-0.1c0,0.2,0.1,0.4,0.1,0.5
						C340.8,188.3,344.7,188.3,349,188.6z"/>
					<path class="st4" d="M336.7,188c-5,0.3-9.1,0.8-12.2,1.4c0,0.2,0.1,0.4,0.2,0.5c3.1-0.6,7.3-1.1,12.2-1.4
						C336.8,188.3,336.8,188.2,336.7,188z"/>
					<path class="st4" d="M373.1,192.5c-3.6-1.1-7.2-2-10.6-2.7c-0.1,0.2-0.1,0.3-0.2,0.5c3.4,0.7,6.9,1.5,10.5,2.6
						C372.9,192.8,373,192.6,373.1,192.5z"/>
					<path class="st4" d="M335.6,183.8c-5,0.3-9.2,1-12.2,1.5c0,0.2,0.1,0.4,0.1,0.5c3-0.6,7.1-1.2,12.2-1.5
						C335.7,184.2,335.6,184,335.6,183.8z"/>
					<path class="st4" d="M348.8,184.4c0-0.2,0-0.4,0-0.5c-4.5-0.3-8.6-0.2-12.3,0c0,0.2,0.1,0.4,0.1,0.5
						C340.2,184.1,344.3,184.1,348.8,184.4z"/>
					<path class="st4" d="M374.7,188.8c-3.6-1.2-7.2-2.1-10.7-2.9c-0.1,0.2-0.1,0.3-0.2,0.5c3.5,0.7,7,1.7,10.7,2.9
						C374.6,189.1,374.6,188.9,374.7,188.8z"/>
					<path class="st4" d="M362.1,185.5c-4.1-0.8-8.1-1.3-11.8-1.6c0,0.2,0,0.4-0.1,0.5c3.7,0.3,7.7,0.8,11.8,1.6
						C362.1,185.9,362.1,185.7,362.1,185.5z"/>
					<path class="st4" d="M349.1,197c0-0.2,0-0.4,0-0.5c-9-0.6-16.6,0.1-22,0.9c0.1,0.2,0.1,0.3,0.2,0.5
						C332.7,197.1,340.2,196.5,349.1,197z"/>
					<path class="st4" d="M359.5,197.7c-3.5-0.6-6.9-1-10.1-1.2c0,0.2,0,0.4,0,0.5c3.2,0.2,6.5,0.6,10,1.2
						C359.4,198,359.4,197.9,359.5,197.7z"/>
					<path class="st4" d="M369.5,199.9c-3.3-0.9-6.6-1.6-9.8-2.1c-0.1,0.2-0.1,0.3-0.2,0.5c3.1,0.5,6.4,1.2,9.7,2.1
						C369.4,200.2,369.4,200,369.5,199.9z"/>
					<path class="st4" d="M338,192.7c3.4-0.1,7.1-0.1,11.1,0.1c0-0.2,0-0.4,0-0.5c-4-0.3-7.8-0.3-11.2-0.1c0,0-0.1,0-0.1,0
						c-4.8,0.2-8.9,0.7-12.1,1.3c0.1,0.2,0.1,0.3,0.2,0.5C329.1,193.4,333.1,192.9,338,192.7C337.9,192.7,338,192.7,338,192.7z"/>
					<path class="st4" d="M371.4,196.2c-3.5-1-6.9-1.8-10.3-2.4c-0.1,0.2-0.1,0.3-0.2,0.5c3.3,0.6,6.7,1.4,10.2,2.4
						C371.2,196.5,371.3,196.3,371.4,196.2z"/>
					<path class="st4" d="M360.4,193.6c-3.8-0.7-7.4-1.1-10.8-1.3c0,0.2,0,0.4,0,0.5c3.4,0.2,7,0.7,10.7,1.3
						C360.3,194,360.4,193.8,360.4,193.6z"/>
					<path class="st4" d="M365.3,207.8c0.1-0.2,0.2-0.3,0.3-0.5c-14.1-3.2-26.6-2.9-35.2-1.9c0.1,0.2,0.2,0.3,0.2,0.5
						C339.2,205,351.4,204.7,365.3,207.8z"/>
					<path class="st4" d="M349.1,201.3C349.1,201.3,349.2,201.3,349.1,201.3c2.9,0.2,6,0.5,9.2,1c0,0,0,0,0.1,0c2.9,0.5,5.9,1,9,1.8
						c0.1-0.2,0.2-0.3,0.3-0.5c-3.1-0.8-6.1-1.4-9.1-1.8c0,0-0.1,0-0.1,0c-3.2-0.5-6.3-0.8-9.3-1c0,0,0,0,0,0
						c-8.1-0.5-15.2,0-20.5,0.7c0.1,0.2,0.1,0.3,0.2,0.5C334.1,201.2,341.1,200.8,349.1,201.3z"/>
					<path class="st4" d="M361.1,215.4c0.1-0.2,0.2-0.3,0.3-0.5c-10.3-1.9-19.5-2-26.7-1.4c0.1,0.2,0.2,0.3,0.3,0.5
						C342.1,213.5,351.1,213.6,361.1,215.4z"/>
					<path class="st4" d="M336.8,216.9c0.1,0.2,0.2,0.4,0.4,0.5c6.3-0.3,13.8-0.1,22,1.2l0.3-0.5C351,216.7,343.2,216.5,336.8,216.9
						z"/>
					<path class="st4" d="M363.2,211.6c0.1-0.2,0.2-0.3,0.3-0.5c-12.2-2.5-23.1-2.5-31.2-1.7c0.1,0.2,0.2,0.3,0.3,0.5
						C340.6,209.2,351.2,209.2,363.2,211.6z"/>
				</g>
			</g>
			<g>
				<g>
					<path class="st2" d="M49.4,202.3c0,0,0-0.4,0-1c0,0,0,0,0,0C49.4,202,49.4,202.3,49.4,202.3z"/>
					<path class="st2" d="M40.9,205c-0.1-0.3-0.4-1.3-0.8-2.7c0,0,0,0,0.1,0C40.5,203.7,40.8,204.6,40.9,205z"/>
					<path class="st2" d="M60.1,194.7c0.1-0.6,0.2-1.3,0.4-2c0,0,0.1,0,0.1,0C60.4,193.4,60.3,194,60.1,194.7z"/>
					<path class="st3" d="M34.4,173.8c4.3-0.9,8.4-1.5,12.3-1.9c0.2,1.2,0.4,2.4,0.5,3.6c-3.9,0.3-8,0.9-12.3,1.8
						C34.7,176.1,34.5,175,34.4,173.8z"/>
					<path class="st3" d="M51.5,162.6c0.2-1.3,0.4-2.5,0.6-3.7c4.4-0.2,8.5,0,12,0.2c0,1.2,0,2.4,0,3.7
						C60.5,162.5,56.2,162.4,51.5,162.6z"/>
					<path class="st3" d="M54.9,149.8c1.3-2.6,2.9-3.9,4.8-3.3c1.4,0.4,2.4,1.7,3.1,3.5C60.4,149.9,57.7,149.8,54.9,149.8z"/>
					<path class="st3" d="M52.3,158.3c0.3-1.3,0.6-2.6,0.9-3.7c3.9-0.1,7.5,0,10.8,0.2c0.1,1.2,0.2,2.4,0.3,3.7
						C60.7,158.3,56.7,158.2,52.3,158.3z"/>
					<path class="st3" d="M38.2,194.2c3.7-0.6,7.3-1.1,10.7-1.3c0.1,1.3,0.2,2.6,0.2,3.7c-3.2,0.2-6.6,0.6-10.1,1.2
						C38.8,196.6,38.5,195.4,38.2,194.2z"/>
					<path class="st3" d="M33.9,169.7c4.2-0.9,8.2-1.5,12-1.9c0.2,1.2,0.5,2.4,0.7,3.6c-3.9,0.4-8,0.9-12.3,1.9
						C34.1,172,34,170.8,33.9,169.7z"/>
					<path class="st3" d="M51,166.8c0.1-1.3,0.3-2.5,0.5-3.7c4.7-0.2,9-0.1,12.7,0.2c0,1.2-0.1,2.4-0.2,3.7
						C60.2,166.7,55.8,166.6,51,166.8z"/>
					<path class="st3" d="M39.2,198.2c3.5-0.6,6.8-0.9,10-1.2c0.1,1.5,0.1,2.8,0.2,3.7c-3,0.2-6,0.5-9.3,1
						C39.8,200.7,39.5,199.6,39.2,198.2z"/>
					<path class="st3" d="M53.3,154.1c0.4-1.4,0.8-2.6,1.3-3.7c3,0,5.8,0,8.4,0.2c0.4,1.1,0.6,2.3,0.8,3.7
						C60.7,154.1,57.1,154,53.3,154.1z"/>
					<path class="st3" d="M35.7,182c4.2-0.8,8.3-1.4,12.1-1.7c0.1,1.2,0.3,2.4,0.4,3.6c-3.7,0.3-7.7,0.8-11.8,1.6
						C36.1,184.3,35.9,183.2,35.7,182z"/>
					<path class="st3" d="M36.4,186c4.1-0.8,8.1-1.3,11.8-1.6c0.1,1.2,0.2,2.5,0.3,3.6c-3.6,0.3-7.4,0.7-11.4,1.5
						C36.9,188.4,36.7,187.2,36.4,186z"/>
					<path class="st3" d="M49.4,192.3c0-1.2,0.1-2.4,0.1-3.7c4.2-0.3,8.2-0.3,11.7-0.1c-0.2,1.3-0.4,2.5-0.7,3.6
						C57.2,192,53.4,192,49.4,192.3z"/>
					<path class="st3" d="M37.3,190.1c3.9-0.7,7.7-1.2,11.3-1.4c0.1,1.3,0.2,2.5,0.3,3.7c-3.4,0.2-7,0.7-10.8,1.3
						C37.8,192.5,37.6,191.3,37.3,190.1z"/>
					<path class="st3" d="M35,177.9c4.3-0.9,8.4-1.5,12.3-1.8c0.2,1.2,0.3,2.4,0.5,3.6c-3.8,0.3-7.9,0.8-12.2,1.7
						C35.4,180.2,35.2,179.1,35,177.9z"/>
					<path class="st3" d="M50.5,171.1c0.1-1.2,0.2-2.5,0.4-3.7c4.8-0.2,9.2-0.1,13.1,0.2c-0.1,1.2-0.2,2.4-0.3,3.7
						C59.8,170.9,55.4,170.8,50.5,171.1z"/>
					<path class="st3" d="M37.5,152.5c1.6-0.3,3,0.7,4.3,2.6c-2.4,0.3-4.9,0.8-7.5,1.3C34.8,154.2,35.9,152.8,37.5,152.5z"/>
					<path class="st3" d="M49.5,188c0-1.2,0.1-2.4,0.1-3.7c4.5-0.3,8.6-0.2,12.3,0c-0.2,1.2-0.4,2.5-0.6,3.6
						C57.8,187.8,53.8,187.8,49.5,188z"/>
					<path class="st3" d="M49.7,183.8c0.1-1.2,0.1-2.4,0.2-3.7c4.6-0.3,8.9-0.2,12.7,0c-0.2,1.2-0.4,2.4-0.5,3.6
						C58.3,183.6,54.2,183.5,49.7,183.8z"/>
					<path class="st3" d="M49.9,179.6c0.1-1.2,0.1-2.5,0.2-3.7c4.8-0.3,9.2-0.2,13,0.1c-0.2,1.2-0.3,2.4-0.5,3.6
						C58.9,179.4,54.6,179.3,49.9,179.6z"/>
					<path class="st3" d="M50.2,175.3c0.1-1.2,0.2-2.5,0.3-3.7c4.8-0.3,9.3-0.2,13.1,0.1c-0.1,1.2-0.3,2.4-0.4,3.6
						C59.4,175.1,55,175.1,50.2,175.3z"/>
					<path class="st3" d="M73.8,165.2c1.4,0.3,2.3,1.6,2.7,3.6c-1.8-0.4-4.1-0.8-6.9-1.2C71,165.8,72.4,164.9,73.8,165.2z"/>
					<path class="st3" d="M33.6,165.5c4-0.9,7.8-1.5,11.4-1.9c0.3,1.1,0.6,2.3,0.8,3.6c-3.8,0.4-7.8,1-12,1.9
						C33.7,167.9,33.7,166.7,33.6,165.5z"/>
					<path class="st3" d="M29.2,200.4c3.3-0.9,6.5-1.6,9.7-2.1c0.4,1.3,0.8,2.5,1.1,3.5c-2.9,0.5-6,1.1-9.1,1.8
						C30.3,202.5,29.8,201.5,29.2,200.4z"/>
					<path class="st3" d="M61.6,188.5c5,0.3,9.1,0.8,12.2,1.4c-0.3,1.2-0.7,2.3-1.1,3.5c-3.2-0.5-7.3-1-12.1-1.3
						C61,191,61.3,189.8,61.6,188.5z"/>
					<path class="st3" d="M62.8,184.4c5,0.3,9.2,1,12.2,1.5c-0.3,1.1-0.6,2.3-0.9,3.5c-3.1-0.6-7.3-1.1-12.2-1.4
						C62.1,186.8,62.4,185.6,62.8,184.4z"/>
					<path class="st3" d="M34.1,156.9c2.7-0.6,5.4-1,7.9-1.4c0.6,1,1.1,2.1,1.6,3.5c-3.2,0.4-6.6,0.9-10,1.7
						C33.7,159.3,33.8,158.1,34.1,156.9z"/>
					<path class="st3" d="M61.3,217.4c-0.5,0.8-1.1,1.5-1.6,2.2H39.9c0,0-0.2-0.3-0.6-0.9C47.6,217.3,55,217.1,61.3,217.4z"/>
					<path class="st3" d="M64,180.2c5,0.4,9,1,11.8,1.6c-0.2,1.1-0.5,2.3-0.8,3.5c-3-0.6-7.1-1.2-12.2-1.5
						C63.3,182.6,63.6,181.4,64,180.2z"/>
					<path class="st3" d="M24,189.3c3.6-1.2,7.2-2.1,10.7-2.9c0.5,1.1,0.9,2.3,1.3,3.4c-3.4,0.7-7,1.5-10.6,2.7
						C24.9,191.4,24.4,190.3,24,189.3z"/>
					<path class="st3" d="M49.3,200.7c0-0.9,0-2.2,0-3.7c8.9-0.6,16.4,0.1,21.8,0.9c-0.4,1.2-0.9,2.3-1.4,3.5
						C64.5,200.7,57.5,200.2,49.3,200.7z"/>
					<path class="st3" d="M22.5,185.5c3.6-1.2,7.1-2.2,10.5-3c0.5,1.1,1,2.2,1.4,3.3c-3.5,0.7-7,1.7-10.7,2.9
						C23.3,187.7,22.9,186.6,22.5,185.5z"/>
					<path class="st3" d="M37.1,214.9c-0.6-1-1.2-2.1-1.9-3.3c12-2.5,22.7-2.4,30.6-1.7c-0.6,1.2-1.3,2.4-2,3.5
						C56.6,212.9,47.4,213,37.1,214.9z"/>
					<path class="st3" d="M25.6,193c3.6-1.1,7.1-2,10.5-2.6c0.4,1.2,0.8,2.3,1.2,3.4c-3.3,0.6-6.8,1.4-10.3,2.4
						C26.6,195.1,26.1,194,25.6,193z"/>
					<path class="st3" d="M21.2,181.8c3.4-1.2,6.7-2.2,10-3c0.5,1,1.1,2.2,1.6,3.3c-3.4,0.8-6.9,1.8-10.5,3
						C21.9,183.9,21.5,182.8,21.2,181.8z"/>
					<path class="st3" d="M21.5,170.5c1.4-0.8,2.8-0.4,4.3,0.8c-2,0.6-3.9,1.3-5.9,2C20.1,171.9,20.6,171,21.5,170.5z"/>
					<path class="st3" d="M49.4,196.5c0-1.1,0-2.3,0.1-3.7c4-0.3,7.7-0.3,11.1-0.1c-0.1,0.7-0.3,1.3-0.4,2c0.1-0.6,0.3-1.3,0.5-2
						c4.8,0.2,8.8,0.7,12,1.2c-0.4,1.2-0.8,2.3-1.2,3.5C65.9,196.6,58.3,195.9,49.4,196.5z"/>
					<path class="st3" d="M69.3,168.1c3,0.4,5.5,0.9,7.3,1.3c0.2,1.1,0.3,2.3,0.2,3.7c-2.2-0.5-5.5-1.1-9.5-1.5
						C68,170.2,68.7,169.1,69.3,168.1z"/>
					<path class="st3" d="M67.1,172.1c4.2,0.4,7.5,1.1,9.8,1.6c0,1.1-0.1,2.3-0.3,3.6c-2.5-0.6-6.3-1.2-11-1.6
						C66.1,174.3,66.6,173.2,67.1,172.1z"/>
					<path class="st3" d="M32.9,207.3c-0.6-1-1.2-2.1-1.7-3.3c3.1-0.8,6.1-1.4,9-1.8c0.4,1.4,0.7,2.4,0.8,2.7
						c-0.1-0.3-0.3-1.3-0.7-2.7c3.2-0.5,6.2-0.8,9.2-1c0,0.7,0,1,0,1s0-0.4,0-1c8-0.5,15,0,20.3,0.7c-0.5,1.2-1,2.3-1.5,3.5
						C59.5,204.4,47,204.1,32.9,207.3z"/>
					<path class="st3" d="M35,211.1c-0.6-1-1.2-2.1-1.8-3.3c13.9-3.2,26.2-2.9,34.7-1.9c-0.6,1.2-1.1,2.4-1.7,3.5
						C58.1,208.7,47.2,208.6,35,211.1z"/>
					<path class="st3" d="M33.6,161.3c3.5-0.8,6.9-1.4,10.2-1.7c0.4,1.1,0.7,2.3,1.1,3.6c-3.6,0.4-7.4,1-11.3,1.8
						C33.5,163.7,33.5,162.4,33.6,161.3z"/>
					<path class="st3" d="M39,218.1c-0.4-0.7-1-1.6-1.6-2.7c10-1.8,19-1.9,26.1-1.4c-0.6,1-1.2,2-1.9,2.9
						C55.3,216.5,47.5,216.7,39,218.1z"/>
					<path class="st3" d="M65.4,176.1c4.7,0.4,8.5,1.1,11.1,1.7c-0.2,1.1-0.3,2.3-0.6,3.5c-2.8-0.6-6.8-1.2-11.8-1.6
						C64.6,178.5,65,177.3,65.4,176.1z"/>
					<path class="st3" d="M20.2,177.9c3-1.1,6-2.1,8.9-2.9c0.6,1,1.3,2,1.9,3.2c-3.2,0.8-6.5,1.8-9.9,3
						C20.7,180.1,20.4,179,20.2,177.9z"/>
					<path class="st3" d="M19.8,173.8c2.2-0.8,4.3-1.6,6.5-2.2c0.8,0.8,1.6,1.8,2.5,2.9c-2.8,0.8-5.7,1.7-8.7,2.8
						C19.8,176,19.8,174.9,19.8,173.8z"/>
					<path class="st3" d="M27.4,196.7c3.5-1,6.9-1.8,10.2-2.4c0.4,1.2,0.8,2.4,1.2,3.5c-3.2,0.5-6.4,1.2-9.8,2.1
						C28.4,198.8,27.9,197.7,27.4,196.7z"/>
					<path class="st4" d="M50.5,171.6c0-0.2,0-0.4,0.1-0.5c4.8-0.3,9.3-0.2,13.1,0.1c0,0.2,0,0.4-0.1,0.5
						C59.7,171.5,55.3,171.4,50.5,171.6z"/>
					<path class="st4" d="M34.3,173.2c4.3-0.9,8.4-1.5,12.3-1.9c0,0.2,0.1,0.4,0.1,0.5c-3.9,0.4-8,0.9-12.3,1.9
						C34.3,173.6,34.3,173.4,34.3,173.2z"/>
					<path class="st4" d="M67.4,171.5c4,0.4,7.3,1,9.5,1.5c0,0.2,0,0.4,0,0.6c-2.3-0.5-5.6-1.1-9.8-1.6
						C67.2,171.9,67.3,171.7,67.4,171.5z"/>
					<path class="st4" d="M20.1,177.4c2.9-1.1,5.8-2,8.7-2.8c0.1,0.2,0.2,0.3,0.3,0.5c-2.9,0.8-5.9,1.7-8.9,2.9
						C20.2,177.7,20.1,177.6,20.1,177.4z"/>
					<path class="st4" d="M19.9,173.2c2-0.7,4-1.4,5.9-2c0.2,0.1,0.3,0.3,0.5,0.4c-2.1,0.6-4.3,1.4-6.5,2.2
						C19.8,173.6,19.9,173.4,19.9,173.2z"/>
					<path class="st4" d="M33.8,169.1c4.2-0.9,8.2-1.5,12-1.9c0,0.2,0.1,0.4,0.1,0.5c-3.8,0.4-7.8,1-12,1.9
						C33.9,169.5,33.9,169.3,33.8,169.1z"/>
					<path class="st4" d="M69.7,167.6c2.8,0.4,5.1,0.8,6.9,1.2c0,0.2,0.1,0.4,0.1,0.6c-1.8-0.4-4.3-0.9-7.3-1.3
						C69.4,167.9,69.6,167.8,69.7,167.6z"/>
					<path class="st4" d="M50.9,167.4c0-0.2,0-0.4,0.1-0.6c4.8-0.2,9.2-0.1,13,0.2c0,0.2,0,0.4,0,0.5
						C60.1,167.3,55.7,167.2,50.9,167.4z"/>
					<path class="st4" d="M22.3,185c3.6-1.2,7.1-2.2,10.5-3c0.1,0.2,0.2,0.3,0.2,0.5c-3.4,0.8-6.9,1.8-10.5,3
						C22.4,185.4,22.4,185.2,22.3,185z"/>
					<path class="st4" d="M49.9,180.1c0-0.2,0-0.4,0-0.5c4.7-0.3,9-0.2,12.8,0c0,0.2-0.1,0.4-0.1,0.5
						C58.8,179.9,54.5,179.9,49.9,180.1z"/>
					<path class="st4" d="M35.6,181.4c4.2-0.8,8.3-1.4,12.2-1.7c0,0.2,0,0.4,0.1,0.5c-3.8,0.3-7.9,0.8-12.1,1.7
						C35.6,181.8,35.6,181.6,35.6,181.4z"/>
					<path class="st4" d="M64.2,179.7c4.9,0.4,9,1,11.8,1.6c0,0.2-0.1,0.4-0.1,0.5c-2.8-0.6-6.8-1.3-11.8-1.6
						C64.1,180.1,64.1,179.9,64.2,179.7z"/>
					<path class="st4" d="M50.1,175.9c0-0.2,0-0.4,0-0.5c4.8-0.3,9.2-0.2,13,0.1c0,0.2,0,0.4-0.1,0.5
						C59.3,175.7,54.9,175.6,50.1,175.9z"/>
					<path class="st4" d="M65.6,175.6c4.7,0.4,8.4,1.1,11,1.6c0,0.2-0.1,0.4-0.1,0.5c-2.6-0.6-6.3-1.2-11.1-1.7
						C65.5,175.9,65.6,175.8,65.6,175.6z"/>
					<path class="st4" d="M21,181.3c3.4-1.2,6.7-2.2,9.9-3c0.1,0.2,0.2,0.3,0.3,0.5c-3.3,0.8-6.6,1.8-10,3
						C21.1,181.6,21.1,181.4,21,181.3z"/>
					<path class="st4" d="M34.9,177.3c4.3-0.9,8.4-1.5,12.3-1.8c0,0.2,0,0.4,0.1,0.5c-3.9,0.3-8,0.9-12.3,1.8
						C34.9,177.7,34.9,177.5,34.9,177.3z"/>
					<path class="st4" d="M53.1,154.6c0.1-0.2,0.1-0.4,0.2-0.6c3.8-0.1,7.4,0,10.6,0.2c0,0.2,0,0.4,0.1,0.6
						C60.7,154.6,57.1,154.5,53.1,154.6z"/>
					<path class="st4" d="M34.2,156.4c2.6-0.5,5.1-1,7.5-1.3c0.1,0.2,0.2,0.3,0.3,0.5c-2.6,0.4-5.2,0.8-7.9,1.4
						C34.1,156.7,34.2,156.5,34.2,156.4z"/>
					<path class="st4" d="M54.6,150.4c0.1-0.2,0.2-0.4,0.3-0.5c2.8,0,5.5,0,7.9,0.2c0.1,0.2,0.1,0.4,0.2,0.6
						C60.4,150.4,57.6,150.3,54.6,150.4z"/>
					<path class="st4" d="M33.6,165c3.9-0.9,7.7-1.5,11.3-1.8c0,0.2,0.1,0.4,0.1,0.5c-3.6,0.4-7.4,1-11.4,1.9
						C33.6,165.3,33.6,165.1,33.6,165z"/>
					<path class="st4" d="M51.5,163.1c0-0.2,0.1-0.4,0.1-0.5c4.7-0.2,8.9-0.1,12.7,0.2c0,0.2,0,0.4,0,0.5
						C60.4,163.1,56.2,162.9,51.5,163.1z"/>
					<path class="st4" d="M33.6,160.7c3.4-0.8,6.8-1.3,10-1.7c0.1,0.2,0.1,0.3,0.2,0.5c-3.3,0.4-6.7,1-10.2,1.7
						C33.6,161.1,33.6,160.9,33.6,160.7z"/>
					<path class="st4" d="M52.2,158.9c0-0.2,0.1-0.4,0.1-0.5c4.4-0.2,8.4,0,11.9,0.2c0,0.2,0,0.4,0,0.5
						C60.7,158.9,56.6,158.7,52.2,158.9z"/>
					<path class="st4" d="M37.2,189.6c4-0.7,7.8-1.2,11.4-1.5c0,0.2,0,0.4,0,0.5c-3.6,0.3-7.4,0.7-11.3,1.4
						C37.3,189.9,37.2,189.7,37.2,189.6z"/>
					<path class="st4" d="M49.5,188.6c0-0.2,0-0.4,0-0.5c4.3-0.3,8.2-0.3,11.8-0.1c0,0.2-0.1,0.4-0.1,0.5
						C57.7,188.3,53.8,188.3,49.5,188.6z"/>
					<path class="st4" d="M61.8,188c5,0.3,9.1,0.8,12.2,1.4c0,0.2-0.1,0.4-0.2,0.5c-3.1-0.6-7.3-1.1-12.2-1.4
						C61.7,188.3,61.7,188.2,61.8,188z"/>
					<path class="st4" d="M25.4,192.5c3.6-1.1,7.2-2,10.6-2.7c0.1,0.2,0.1,0.3,0.2,0.5c-3.4,0.7-6.9,1.5-10.5,2.6
						C25.5,192.8,25.5,192.6,25.4,192.5z"/>
					<path class="st4" d="M62.9,183.8c5,0.3,9.2,1,12.2,1.5c0,0.2-0.1,0.4-0.1,0.5c-3-0.6-7.1-1.2-12.2-1.5
						C62.8,184.2,62.9,184,62.9,183.8z"/>
					<path class="st4" d="M49.7,184.4c0-0.2,0-0.4,0-0.5c4.5-0.3,8.6-0.2,12.3,0c0,0.2-0.1,0.4-0.1,0.5
						C58.3,184.1,54.1,184.1,49.7,184.4z"/>
					<path class="st4" d="M23.8,188.8c3.6-1.2,7.2-2.1,10.7-2.9c0.1,0.2,0.1,0.3,0.2,0.5c-3.5,0.7-7,1.7-10.7,2.9
						C23.9,189.1,23.8,188.9,23.8,188.8z"/>
					<path class="st4" d="M36.3,185.5c4.1-0.8,8.1-1.3,11.8-1.6c0,0.2,0,0.4,0.1,0.5c-3.7,0.3-7.7,0.8-11.8,1.6
						C36.4,185.9,36.4,185.7,36.3,185.5z"/>
					<path class="st4" d="M49.4,197c0-0.2,0-0.4,0-0.5c9-0.6,16.6,0.1,22,0.9c-0.1,0.2-0.1,0.3-0.2,0.5
						C65.8,197.1,58.2,196.5,49.4,197z"/>
					<path class="st4" d="M39,197.7c3.5-0.6,6.9-1,10.1-1.2c0,0.2,0,0.4,0,0.5c-3.2,0.2-6.5,0.6-10,1.2
						C39.1,198,39.1,197.9,39,197.7z"/>
					<path class="st4" d="M29,199.9c3.3-0.9,6.6-1.6,9.8-2.1c0.1,0.2,0.1,0.3,0.2,0.5c-3.1,0.5-6.4,1.2-9.7,2.1
						C29.1,200.2,29,200,29,199.9z"/>
					<path class="st4" d="M60.5,192.7c-3.4-0.1-7.1-0.1-11.1,0.1c0-0.2,0-0.4,0-0.5c4-0.3,7.8-0.3,11.2-0.1c0,0,0.1,0,0.1,0
						c4.8,0.2,8.9,0.7,12.1,1.3c-0.1,0.2-0.1,0.3-0.2,0.5C69.4,193.4,65.3,192.9,60.5,192.7C60.5,192.7,60.5,192.7,60.5,192.7z"/>
					<path class="st4" d="M27.1,196.2c3.5-1,6.9-1.8,10.3-2.4c0.1,0.2,0.1,0.3,0.2,0.5c-3.3,0.6-6.7,1.4-10.2,2.4
						C27.3,196.5,27.2,196.3,27.1,196.2z"/>
					<path class="st4" d="M38.1,193.6c3.8-0.7,7.4-1.1,10.8-1.3c0,0.2,0,0.4,0,0.5c-3.4,0.2-7,0.7-10.7,1.3
						C38.2,194,38.1,193.8,38.1,193.6z"/>
					<path class="st4" d="M33.2,207.8c-0.1-0.2-0.2-0.3-0.3-0.5c14.1-3.2,26.6-2.9,35.2-1.9c-0.1,0.2-0.2,0.3-0.2,0.5
						C59.3,205,47.1,204.7,33.2,207.8z"/>
					<path class="st4" d="M49.4,201.3C49.3,201.3,49.3,201.3,49.4,201.3c-2.9,0.2-6,0.5-9.2,1c0,0,0,0-0.1,0c-2.9,0.5-5.9,1-9,1.8
						c-0.1-0.2-0.2-0.3-0.3-0.5c3.1-0.8,6.1-1.4,9.1-1.8c0,0,0.1,0,0.1,0c3.2-0.5,6.3-0.8,9.3-1c0,0,0,0,0,0
						c8.1-0.5,15.2,0,20.5,0.7c-0.1,0.2-0.1,0.3-0.2,0.5C64.3,201.2,57.4,200.8,49.4,201.3z"/>
					<path class="st4" d="M37.4,215.4c-0.1-0.2-0.2-0.3-0.3-0.5c10.3-1.9,19.5-2,26.7-1.4c-0.1,0.2-0.2,0.3-0.3,0.5
						C56.4,213.5,47.4,213.6,37.4,215.4z"/>
					<path class="st4" d="M61.7,216.9c-0.1,0.2-0.2,0.4-0.4,0.5c-6.3-0.3-13.8-0.1-22,1.2l-0.3-0.5
						C47.5,216.7,55.3,216.5,61.7,216.9z"/>
					<path class="st4" d="M35.2,211.6c-0.1-0.2-0.2-0.3-0.3-0.5c12.2-2.5,23.1-2.5,31.2-1.7c-0.1,0.2-0.2,0.3-0.3,0.5
						C57.9,209.2,47.3,209.2,35.2,211.6z"/>
				</g>
			</g>
			<g>
				<path class="st5" d="M327.4,88.4c-3.5-3.5-7.2,3.4-7.2,3.4s1.2-7.4-2.8-7.4c-4.1,0-2.8,7.4-2.8,7.4s-3.7-6.9-7.2-3.4
					c-3.5,3.5,4.4,8.1,4.4,8.1h5.7h5.7C323,96.5,330.9,91.9,327.4,88.4z"/>
				<path class="st5" d="M295.1,99.5c-2.6-2.6-5.5,2.5-5.5,2.5s0.9-5.6-2.1-5.6c-3.1,0-2.1,5.6-2.1,5.6s-2.8-5.2-5.5-2.5
					c-2.6,2.6,3.3,6.1,3.3,6.1h4.3h4.3C291.8,105.6,297.7,102.2,295.1,99.5z"/>
				<g>
					<path class="st6" d="M290.2,104.9L290.2,104.9c-0.8-0.2-1.6-0.2-2.5-0.3v52h10.4v-22.4C298.2,112,290.3,105,290.2,104.9z
						 M290.9,114.6h1.8v0.5h-1.8V114.6z M293.7,153.6h-1.8v-0.5h1.8V153.6z M291.8,134.3v-0.5h1.8v0.5H291.8z"/>
					<path class="st6" d="M284.7,104.9L284.7,104.9c-0.1,0.1-7.9,7.1-7.9,29.3v22.4h10.4v-52C286.4,104.7,285.5,104.7,284.7,104.9z
						 M282.5,143.8h-1.8v-0.5h1.8V143.8z M282.5,125.7h-1.8v-0.5h1.8V125.7z"/>
					<path class="st6" d="M291.1,105.1c1.8,2,7.6,9.8,7.6,29.1v22.4h5.6v-24.5C304.2,132.1,304.8,108.6,291.1,105.1z M300.1,125.2
						h1.8v0.5h-1.8V125.2z M302.5,143.8h-1.8v-0.5h1.8V143.8z"/>
					<path class="st6" d="M283.9,105.1c-13.7,3.5-13.2,27-13.2,27v24.5h5.6v-22.4C276.3,114.9,282.1,107.1,283.9,105.1z
						 M273.8,153.6H272v-0.5h1.8V153.6z M273.8,134.3H272v-0.5h1.8V134.3z M275.2,114.6h1.8v0.5h-1.8V114.6z"/>
					<path class="st7" d="M287.5,104.6c-0.1,0-0.2,0-0.2,0v52h0.2h0.2v-52C287.6,104.6,287.6,104.6,287.5,104.6z"/>
					<path class="st7" d="M284.7,104.9L284.7,104.9c-0.3,0-0.6,0.1-0.8,0.2c-1.8,2-7.6,9.8-7.6,29.1v22.4h0.5v-22.4
						C276.8,112,284.7,105,284.7,104.9z"/>
					<path class="st7" d="M291.1,105.1c-0.3-0.1-0.5-0.1-0.8-0.2l0,0c0.1,0.1,7.9,7.1,7.9,29.3v22.4h0.5v-22.4
						C298.6,114.9,292.9,107.1,291.1,105.1z"/>
					<rect x="272" y="133.9" class="st7" width="1.8" height="0.5"/>
					<rect x="272" y="153.1" class="st7" width="1.8" height="0.5"/>
					<rect x="275.2" y="114.6" class="st7" width="1.8" height="0.5"/>
					<rect x="291.8" y="133.9" class="st7" width="1.8" height="0.5"/>
					<rect x="291.8" y="153.1" class="st7" width="1.8" height="0.5"/>
					<rect x="290.9" y="114.6" class="st7" width="1.8" height="0.5"/>
					<rect x="280.6" y="125.2" class="st7" width="1.8" height="0.5"/>
					<rect x="300.1" y="125.2" class="st7" width="1.8" height="0.5"/>
					<rect x="280.6" y="143.4" class="st7" width="1.8" height="0.5"/>
					<rect x="300.7" y="143.4" class="st7" width="1.8" height="0.5"/>
				</g>
				<polygon class="st8" points="331.5,219.5 274.9,219.5 266.9,161.9 339.6,161.9 				"/>
				<g>
					<path class="st9" d="M320.6,95.3L320.6,95.3c-0.9-0.2-1.9-0.3-3-0.3v61.7H330v-26.6C330,103.7,320.7,95.4,320.6,95.3z
						 M321.4,106.8h2.2v0.5h-2.2V106.8z M324.7,153h-2.2v-0.5h2.2V153z M322.5,130.2v-0.5h2.2v0.5H322.5z"/>
					<path class="st9" d="M314.1,95.3L314.1,95.3c-0.1,0.1-9.4,8.4-9.4,34.8v26.6h12.4V95C316,95,315,95.1,314.1,95.3z M311.4,141.5
						h-2.2v-0.5h2.2V141.5z M311.4,119.9h-2.2v-0.5h2.2V119.9z"/>
					<path class="st9" d="M321.6,95.5c2.1,2.3,9,11.6,9,34.5v26.6h6.7v-29.1C337.2,127.6,337.9,99.7,321.6,95.5z M332.3,119.4h2.2
						v0.5h-2.2V119.4z M335.2,141.5H333v-0.5h2.2V141.5z"/>
					<path class="st9" d="M313.1,95.5c-16.3,4.1-15.6,32-15.6,32v29.1h6.7v-26.6C304.1,107.1,310.9,97.9,313.1,95.5z M301.1,153
						h-2.2v-0.5h2.2V153z M301.1,130.2h-2.2v-0.5h2.2V130.2z M302.8,106.8h2.2v0.5h-2.2V106.8z"/>
					<path class="st7" d="M317.3,95c-0.1,0-0.2,0-0.3,0v61.7h0.3h0.3V95C317.5,95,317.4,95,317.3,95z"/>
					<path class="st7" d="M314.1,95.3L314.1,95.3c-0.3,0.1-0.7,0.1-1,0.2c-2.1,2.3-9,11.6-9,34.5v26.6h0.5v-26.6
						C304.7,103.7,314,95.4,314.1,95.3z"/>
					<path class="st7" d="M321.6,95.5c-0.3-0.1-0.6-0.2-1-0.2l0,0c0.1,0.1,9.4,8.4,9.4,34.7v26.6h0.5v-26.6
						C330.5,107.1,323.7,97.9,321.6,95.5z"/>
					<rect x="298.9" y="129.6" class="st7" width="2.2" height="0.5"/>
					<rect x="298.9" y="152.4" class="st7" width="2.2" height="0.5"/>
					<rect x="302.8" y="106.8" class="st7" width="2.2" height="0.5"/>
					<rect x="322.5" y="129.6" class="st7" width="2.2" height="0.5"/>
					<rect x="322.5" y="152.4" class="st7" width="2.2" height="0.5"/>
					<rect x="321.4" y="106.8" class="st7" width="2.2" height="0.5"/>
					<rect x="309.2" y="119.4" class="st7" width="2.2" height="0.5"/>
					<rect x="332.3" y="119.4" class="st7" width="2.2" height="0.5"/>
					<rect x="309.2" y="140.9" class="st7" width="2.2" height="0.5"/>
					<rect x="333" y="140.9" class="st7" width="2.2" height="0.5"/>
				</g>
				<rect x="264.2" y="156.7" class="st10" width="78" height="13.6"/>
			</g>
			<g>
				
					<rect x="144.8" y="182.3" transform="matrix(-1 -1.224647e-16 1.224647e-16 -1 338.5158 401.8973)" class="st8" width="48.9" height="37.2"/>
				<path class="st11" d="M279.2,191.1H59.3c-2.9,0-5.2-2.3-5.2-5.2V53.6c0-2.9,2.3-5.2,5.2-5.2h219.9c2.9,0,5.2,2.3,5.2,5.2v132.3
					C284.4,188.7,282.1,191.1,279.2,191.1z"/>
				<g>
					<defs>
						<rect id="SVGID_1_" x="60.9" y="55.5" width="216.7" height="128.5"/>
					</defs>
					<clipPath id="SVGID_2_">
						<use xlink:href="#SVGID_1_"  style="overflow:visible;"/>
					</clipPath>
					<rect x="60.9" y="55.5" class="st12" width="216.7" height="128.5"/>
					<rect x="57.4" y="51.5" class="st13" width="222" height="135.6"/>
					<rect x="327" y="14.4" class="st14" width="222" height="135.6"/>
				</g>
				<path class="st11" d="M139.4,219.3h59.5v0c0-2.7-2.2-4.9-4.9-4.9h-49.7C141.6,214.4,139.4,216.6,139.4,219.3L139.4,219.3z"/>
			</g>
			<g>
				<rect x="75" y="61.5" class="st15" width="189.2" height="114.1"/>
				<rect x="75" y="66.9" class="st16" width="189.2" height="108.5"/>
				<rect x="86.6" y="88.6" class="st17" width="166.9" height="1.1"/>
				<rect x="86.6" y="90.9" class="st17" width="166.9" height="1.1"/>
				<g>
					<g>
						<rect x="88.9" y="102.7" class="st17" width="38.9" height="1"/>
						<rect x="88.9" y="98.1" class="st4" width="38.9" height="2.5"/>
						<rect x="108.4" y="134.5" class="st17" width="19.4" height="2.5"/>
						<rect x="88.9" y="105" class="st17" width="38.9" height="1"/>
						<rect x="88.9" y="107.3" class="st17" width="38.9" height="1"/>
						<rect x="88.9" y="109.5" class="st17" width="38.9" height="1"/>
						<rect x="88.9" y="111.8" class="st17" width="38.9" height="1"/>
						<rect x="88.9" y="114" class="st17" width="38.9" height="1"/>
						<rect x="88.9" y="116.3" class="st17" width="38.9" height="1"/>
						<rect x="88.9" y="118.5" class="st17" width="38.9" height="1"/>
						<rect x="88.9" y="147.9" class="st17" width="38.9" height="1"/>
						<rect x="88.9" y="150.1" class="st17" width="38.9" height="1"/>
						<rect x="88.9" y="152.4" class="st17" width="38.9" height="1"/>
						<rect x="88.9" y="154.6" class="st17" width="38.9" height="1"/>
						<rect x="88.9" y="156.9" class="st17" width="38.9" height="1"/>
						<rect x="88.9" y="159.1" class="st17" width="38.9" height="1"/>
						<rect x="88.9" y="161.4" class="st17" width="38.9" height="1"/>
						<rect x="88.9" y="163.7" class="st17" width="38.9" height="1"/>
						<rect x="108.4" y="120.8" class="st17" width="19.4" height="1"/>
						<rect x="108.4" y="123" class="st17" width="19.4" height="1"/>
						<rect x="108.4" y="125.3" class="st17" width="19.4" height="1"/>
						<rect x="108.4" y="127.6" class="st17" width="19.4" height="1"/>
						<rect x="108.4" y="138.8" class="st17" width="19.4" height="1"/>
						<rect x="108.4" y="141.1" class="st17" width="19.4" height="1"/>
						<rect x="108.4" y="143.4" class="st17" width="19.4" height="1"/>
						<rect x="108.4" y="145.6" class="st17" width="19.4" height="1"/>
						<rect x="108.4" y="129.8" class="st17" width="19.4" height="1"/>
						<rect x="88.9" y="120.8" class="st17" width="17.7" height="25.8"/>
					</g>
				</g>
				<g>
					<rect x="136.7" y="95.6" class="st5" width="43.6" height="71.8"/>
					<rect x="139" y="102.7" class="st18" width="38.9" height="1"/>
					<rect x="139" y="98.1" class="st18" width="38.9" height="2.5"/>
					<rect x="139" y="105" class="st18" width="38.9" height="1"/>
					<rect x="139" y="107.3" class="st18" width="38.9" height="1"/>
					<rect x="139" y="109.5" class="st18" width="38.9" height="1"/>
					<rect x="139" y="111.8" class="st18" width="38.9" height="1"/>
					<rect x="139" y="114" class="st18" width="38.9" height="1"/>
					<rect x="139" y="116.3" class="st18" width="38.9" height="1"/>
					<rect x="139" y="118.5" class="st18" width="38.9" height="1"/>
					<rect x="139" y="147.9" class="st18" width="38.9" height="1"/>
					<rect x="139" y="150.1" class="st18" width="38.9" height="1"/>
					<rect x="139" y="152.4" class="st18" width="38.9" height="1"/>
					<rect x="139" y="154.6" class="st18" width="38.9" height="1"/>
					<rect x="139" y="156.9" class="st18" width="38.9" height="1"/>
					<rect x="139" y="159.1" class="st18" width="38.9" height="1"/>
					<rect x="139" y="161.4" class="st18" width="38.9" height="1"/>
					<rect x="139" y="163.7" class="st18" width="38.9" height="1"/>
					<rect x="139" y="123" class="st18" width="38.8" height="22"/>
				</g>
				<g>
					<g>
						<rect x="189.3" y="101.9" class="st17" width="28.2" height="1"/>
						<rect x="189.3" y="97.8" class="st4" width="28.2" height="1.7"/>
						<rect x="220.2" y="97.8" class="st17" width="30.2" height="18.5"/>
						<rect x="189.3" y="104.1" class="st17" width="28.2" height="1"/>
						<rect x="189.3" y="106.4" class="st17" width="28.2" height="1"/>
						<rect x="189.3" y="110.9" class="st17" width="28.2" height="1"/>
						<rect x="189.3" y="113.1" class="st17" width="28.2" height="1"/>
						<rect x="189.3" y="115.4" class="st17" width="28.2" height="1"/>
						<rect x="189.3" y="117.6" class="st17" width="28.2" height="1"/>
						<rect x="220.2" y="117.6" class="st17" width="30.3" height="1"/>
						<rect x="189.3" y="108.6" class="st17" width="28.2" height="1"/>
					</g>
				</g>
				<g>
					<rect x="186.9" y="125.8" class="st17" width="33.1" height="41.6"/>
					<rect x="189.3" y="157.6" class="st4" width="28.2" height="1"/>
					<rect x="189.3" y="159.8" class="st4" width="28.2" height="1"/>
					<rect x="189.3" y="162.1" class="st4" width="28.2" height="1"/>
					<rect x="189.3" y="164.4" class="st4" width="28.2" height="1"/>
					<rect x="189.3" y="128.5" class="st4" width="28.1" height="26.8"/>
				</g>
				<g>
					<rect x="224.7" y="125.8" class="st17" width="27.4" height="41.6"/>
					<rect x="226.8" y="132.8" class="st4" width="23" height="1"/>
					<rect x="226.8" y="128.1" class="st4" width="23" height="2.5"/>
					<rect x="226.8" y="135" class="st4" width="23" height="1"/>
					<rect x="226.8" y="137.3" class="st4" width="23" height="1"/>
					<rect x="226.8" y="139.5" class="st4" width="23" height="1"/>
					<rect x="226.8" y="141.8" class="st4" width="23" height="1"/>
					<rect x="226.8" y="144.1" class="st4" width="23" height="1"/>
					<rect x="226.8" y="146.3" class="st4" width="23" height="1"/>
					<rect x="226.8" y="148.6" class="st4" width="23" height="1"/>
					<rect x="226.8" y="151.1" class="st4" width="22.6" height="14"/>
				</g>
				<rect x="86.6" y="73.2" class="st5" width="166.3" height="5.7"/>
				<rect x="86.6" y="80.6" class="st17" width="166.3" height="5.7"/>
				<rect x="259.7" y="62.8" class="st5" width="2.3" height="2.3"/>
				<rect x="251.5" y="62.8" class="st17" width="2.3" height="2.3"/>
				
					<rect x="255.6" y="62.8" transform="matrix(-1.836970e-16 1 -1 -1.836970e-16 320.7038 -192.7756)" class="st17" width="2.3" height="2.3"/>
			</g>
			<g>
				<path class="st11" d="M182.3,47c0,0-2.1-0.3-4.2,1.8c6,0,8,0,8,0l0.1-1.8H182.3z"/>
				<path class="st19" d="M211.5,40.4c0,0-13.3-13-20.9-13c-3.4,0-7.9,19.6-7.9,19.6h3.4l6.4-13.7C192.5,33.3,203.7,48.3,211.5,40.4
					z"/>
				<path class="st10" d="M166,45.4c0,0,18.1-11.3,25-11.3c6.9,0,26,6.7,26,6.7s1.9,8-8.3,8c-7.8,0-18.4-9.2-18.4-9.2l-22.1,7.9
					L166,45.4z"/>
				<path class="st20" d="M192,27.8l8.7,2.3c0,0,5.6-13.7,8.5-12.5c2.9,1.3-2.5,13.9-6.5,16.2c-2.4,1.4-11.8-4-11.8-4L192,27.8z"/>
				<path class="st11" d="M207.9,6.3c0,0-2.9,0-3.9,2.9c-1,2.8,2.5,4.9-1,10c-3.5,5.1,3.4,6.7,3.4,6.7s-0.6-5.4,1.7-7
					c2.3-1.7,4-1.1,5.1-5.8C213.9,9.5,211.9,6.3,207.9,6.3z"/>
				<path class="st5" d="M207.9,17.8c-2.8,2-3.8,5.8-2.4,9c0.4,0.8,0.9,1.6,1.5,2.3c2.8,2.8,0,8.6,0,8.6l10,4.4
					c0,0,2.6-13.4-0.3-19.7C214.5,17.6,211.2,15.4,207.9,17.8z"/>
				<path class="st11" d="M165.4,44.9c0,0-1.3-1.7-4.3-1.7c4.3,4.3,5.6,5.6,5.6,5.6l1.4-1.2L165.4,44.9z"/>
				<path class="st21" d="M198.4,30.8h9c0,0,1.5-13.5,4.6-13.1c3.1,0.5,1.6,12.9-1.7,16c-1.9,1.8-12.4-0.7-12.4-0.7L198.4,30.8z"/>
				<path class="st11" d="M207.1,5.9"/>
				<g>
					<polygon class="st22" points="198.4,25.7 183.3,25.7 185.7,34.7 200.7,34.7 					"/>
					<rect x="185.7" y="34" class="st22" width="19.5" height="0.7"/>
				</g>
				<path class="st20" d="M207.6,20l0.1,0c2.2-0.5,3.4-2.4,3.4-3.2l-0.8-3.2l-4,1L207.6,20z"/>
				<path class="st21" d="M208.1,7.3c-1.9,0-3.4,1.5-3.4,3.4v1.9c0,1.9,0.5,3.8,2.4,3.8c1.9,0,4.4-2,4.4-3.8v-1.9
					C211.5,8.8,209.9,7.3,208.1,7.3z"/>
				<path class="st20" d="M207.9,13.7c0,0.6,0.4,1,1,1c0.6,0,1-0.4,1-1c0-0.6-0.4-1-1-1C208.3,12.7,207.9,13.2,207.9,13.7z"/>
				<path class="st5" d="M205.8,14.6c0,0,0.4-0.3,0.8,0.1c0.4-0.4,0.8,0,0.8,0s-0.2,0.5-0.8,0.5C206,15.1,205.8,14.6,205.8,14.6z"/>
				<g>
					<path class="st23" d="M204.9,12.4c0,0.2,0.1,0.4,0.3,0.4c0.1,0,0.3-0.2,0.3-0.4c0-0.2-0.1-0.4-0.3-0.4
						C205.1,11.9,204.9,12.1,204.9,12.4z"/>
					<path class="st23" d="M207.8,12.4c0,0.2,0.1,0.4,0.3,0.4c0.1,0,0.3-0.2,0.3-0.4c0-0.2-0.1-0.4-0.3-0.4
						C207.9,11.9,207.8,12.1,207.8,12.4z"/>
				</g>
				<path class="st24" d="M205.6,14.5c0,0,0.3,0.3,1,0.3c0.7,0,1-0.2,1-0.2"/>
				<path class="st20" d="M206.6,14v-1.6C206.6,12.4,205.4,14,206.6,14z"/>
				<g>
					<path class="st24" d="M204.8,11.7c0,0,0.3-0.3,0.8-0.2"/>
					<path class="st24" d="M208.5,11.7c0,0-0.3-0.3-0.8-0.2"/>
				</g>
				<g>
					<path class="st20" d="M205.4,13.7c0-0.5-0.3-0.8-0.7-1c0,0.6,0.1,1.3,0.2,1.8C205.2,14.4,205.4,14.1,205.4,13.7z"/>
				</g>
				<path class="st11" d="M205.9,7.1c0,0-0.9,3.8,4.8,4.8c-0.4,1.3-0.4,4,0.5,4.9C211.1,16.8,214.8,3.9,205.9,7.1z"/>
			</g>
			<g>
				<g>
					<path class="st11" d="M251.7,148.3L251.7,148.3c-0.3,0.3-0.8,0.3-1.1,0l-8.7-8.7l1.2-1l8.6,8.6C252,147.5,252,148,251.7,148.3z
						"/>
					<g>
						<path class="st11" d="M242.9,129.4c-2.8-2.8-7.3-2.8-10,0c-2.8,2.8-2.8,7.3,0,10c2.8,2.8,7.3,2.8,10,0
							C245.7,136.7,245.7,132.2,242.9,129.4z M242.3,138.8c-2.4,2.4-6.4,2.4-8.8,0c-2.4-2.4-2.4-6.4,0-8.8c2.4-2.4,6.4-2.4,8.8,0
							C244.8,132.5,244.8,136.4,242.3,138.8z"/>
						<path class="st25" d="M242.3,130c-2.4-2.4-6.4-2.4-8.8,0c-2.4,2.4-2.4,6.4,0,8.8c2.4,2.4,6.4,2.4,8.8,0
							C244.8,136.4,244.8,132.5,242.3,130z"/>
					</g>
					
						<rect x="245.7" y="139.6" transform="matrix(0.7071 -0.7071 0.7071 0.7071 -29.0386 216.4401)" class="st26" width="2" height="7.4"/>
				</g>
				<path class="st21" d="M232.1,145.8c0,0,9.5,0.2,10.3,11.6c2.1-8.8,2.8-11.6,2.8-11.6h2.6c0,0,0.2,19.2-5,19.2
					C237.5,165,232.1,145.8,232.1,145.8z"/>
				<path class="st21" d="M226.9,145.9c0,0-7.5-0.4-10.8,15s-3,19.5-3,19.5h1.8C214.8,180.3,225.1,154.6,226.9,145.9z"/>
				<g>
					<path class="st20" d="M238.2,155c0-10.7-5.9-9.2-11.3-9.2c-5.4,0-5.1,9.2-5.1,9.2l-1,18.3h17.5V155z"/>
					<polygon class="st10" points="220.7,173.4 218.2,217.5 222.2,217.5 229.6,180.5 233.9,217.5 237.9,217.5 238.2,173.4 					"/>
				</g>
				<path class="st11" d="M238.2,217.5c0,0,2.3-0.3,4.6,2c-6.6,0-8.7,0-8.7,0l-0.1-2H238.2z"/>
				<path class="st11" d="M222.4,217.5c0,0,2.3-0.3,4.6,2c-6.6,0-8.7,0-8.7,0l-0.1-2H222.4z"/>
				<path class="st5" d="M215.9,159.2l5.5,3.1l-0.7,12.8c0,0,8.5,2.1,17.6,0c0-5.2,0.2-13.9,0.2-13.9l4.2-5c0,0-0.6-10.8-12.2-10.8
					C218.6,145.3,217,154,215.9,159.2z"/>
				<path class="st20" d="M227,142.7v2.5c0,0.8,0.9,1.6,2.1,1.6c1.3,0.1,2.5-0.6,2.5-1.5v-2.6H227z"/>
				<path class="st21" d="M247.8,145.8c0,0,2.3-2.5,0-3.3c-2.3-0.8-2.6,3.3-2.6,3.3H247.8z"/>
				<path class="st20" d="M229.3,144.3L229.3,144.3c-2,0-3.7-1.7-3.7-3.7v-2.9c0-2,1.7-3.7,3.7-3.7l0,0c2,0,3.7,1.7,3.7,3.7v2.9
					C233,144.1,231.3,144.3,229.3,144.3z"/>
				<path class="st21" d="M214.9,180c0,0,0.6,3.4,0.1,3.7c-0.4,0.3-0.7-1.8-0.7-1.8s-0.4,1.9-0.5,2.9c-0.1,1-1.3,0.8-1.6-1.1
					c-0.3-1.9,1-3.7,1-3.7L214.9,180z"/>
				<path class="st11" d="M228.6,144.8c0,0-3.3-0.2-3.3-4.1c0-4,0-7.1,3.3-7.1c3.3,0,3.5,3.1,3.5,7.4
					C232.1,145.1,228.6,144.8,228.6,144.8z"/>
				<path class="st11" d="M228.6,133.5c0,0,4.9-0.6,4.9,4.4c-1.2,0.7-2.3-0.1-2.3-0.1L228.6,133.5z"/>
				<path class="st20" d="M232.3,139.5c0,0-0.9,0-0.9,0.9c0,0.9,0.9,0.9,0.9,0.9V139.5z"/>
			</g>
			<g>
				<path class="st11" d="M88.9,133.1c0,0-3.4-0.7-3.4,3.6c0,4.4,2.6,7.8,5.2,6.8S88.9,133.1,88.9,133.1z"/>
				<path class="st27" d="M110.6,153.6c0,0,2.7-0.6,3-0.1c0.2,0.4-1.5,0.6-1.5,0.6s1.6,0.4,2.4,0.5c0.8,0.1,0.7,1.2-0.9,1.4
					c-1.5,0.3-3-0.9-3-0.9L110.6,153.6z"/>
				<path class="st27" d="M95.7,149.9l3.6,4.4l11.8-0.7l0,1.6c0,0-6.7,2.7-11.7,2.7c-2.7,0-5.4-1.8-7.4-3.5c-1.5-1.3-1.4-3.9,0.3-5
					l0,0C93.4,148.6,94.8,148.8,95.7,149.9z"/>
				<polygon class="st4" points="82.8,172.1 78.4,217.5 81.4,217.5 90.4,178.3 95.9,217.5 98.6,217.5 98,172.1 				"/>
				<path class="st20" d="M83.6,167.1c0.5-1.9,0.7-3.9,0.4-5.9c-0.9-5.6-1.1-15.3,5.2-15.3c6.7,0,9,5.8,7.6,14.2
					c-0.4,2.3-0.3,4.6,0.4,6.8c0,0.1,0.1,0.3,0.1,0.4c0.8,2.7,0.8,4.9,0.8,4.9H82.8C82.8,172.1,82.8,170.1,83.6,167.1z"/>
				<path class="st5" d="M84,165.1c0,0-5.6,7.1-5.6,22.4c11.3,3,22.6,0.2,22.6,0.2c-0.9-8.7-2.2-16.7-4.3-22.6
					C96.7,165.1,92.6,167,84,165.1z"/>
				<g>
					<path class="st11" d="M95.1,170.2L95.1,170.2c0.8,0.8,2.1,0.8,2.9,0l23.4-23.4l-3-2.8l-23.2,23.2
						C94.3,168.1,94.3,169.4,95.1,170.2z"/>
					<g>
						<path class="st11" d="M145.5,119.8c-7.4-7.4-19.4-7.4-26.9,0c-7.4,7.4-7.4,19.4,0,26.9c7.4,7.4,19.4,7.4,26.9,0
							C152.9,139.2,152.9,127.2,145.5,119.8z M143.9,145c-6.5,6.5-17.2,6.5-23.7,0s-6.5-17.2,0-23.7c6.5-6.5,17.2-6.5,23.7,0
							C150.5,127.9,150.5,138.5,143.9,145z"/>
						<circle class="st25" cx="132.1" cy="133.2" r="16.8"/>
					</g>
					
						<rect x="105.7" y="147" transform="matrix(-0.7071 -0.7071 0.7071 -0.7071 74.1691 344.5209)" class="st26" width="5.5" height="19.7"/>
				</g>
				<g>
					<path class="st27" d="M87.5,138.9c0,0-1.1-0.1-1.1,1c0,1.1,1.4,1.3,1.4,1.3L87.5,138.9z"/>
				</g>
				<path class="st20" d="M90.8,148.4L90.8,148.4c-1.1,0-2.1-0.9-2.1-2.1v-3.5h4.1v3.5C92.9,147.4,91.9,148.4,90.8,148.4z"/>
				<path class="st27" d="M90.8,144.4L90.8,144.4c-1.9,0-3.4-1.5-3.4-3.4v-2.7c0-1.9,1.5-3.4,3.4-3.4l0,0c1.9,0,3.4,1.5,3.4,3.4v2.7
					C94.2,142.8,92.6,144.4,90.8,144.4z"/>
				<path class="st28" d="M91.6,141.9c0,0-0.5-0.4-0.8,0.1c-0.4-0.4-0.8,0-0.8,0s0.2,0.6,0.8,0.6C91.5,142.5,91.6,141.9,91.6,141.9z
					"/>
				<g>
					<path class="st23" d="M89.1,139.7c0,0.2,0.1,0.4,0.3,0.4c0.1,0,0.3-0.2,0.3-0.4c0-0.2-0.1-0.4-0.3-0.4
						C89.2,139.3,89.1,139.5,89.1,139.7z"/>
					<path class="st23" d="M91.9,139.7c0,0.2,0.1,0.4,0.3,0.4c0.1,0,0.3-0.2,0.3-0.4c0-0.2-0.1-0.4-0.3-0.4
						C92.1,139.3,91.9,139.5,91.9,139.7z"/>
				</g>
				<path class="st29" d="M89.6,141.7c0,0,0.3,0.4,1.2,0.4c0.8,0,1.2-0.4,1.2-0.4"/>
				<path class="st20" d="M90.7,141.4v-1.6C90.7,139.7,91.9,141.4,90.7,141.4z"/>
				<path class="st11" d="M88.7,145.4c0,0-4.1,0.5-5.1,5.7c-1,5.1,0.4,10.7,0.4,10.7s4.4,2,12.4,0c2.1-9.4,0-13.3-3.7-16.1
					C90.5,146.2,88.7,145.4,88.7,145.4z"/>
				<g>
					<path class="st29" d="M88.9,139c0,0,0.3-0.3,0.8-0.2"/>
					<path class="st29" d="M92.6,139c0,0-0.3-0.3-0.8-0.2"/>
				</g>
				<g>
					<path class="st20" d="M87.6,141.1c0,0.5,0.4,1,1,1c0.5,0,1-0.4,1-1c0-0.5-0.4-1-1-1C88,140.1,87.6,140.5,87.6,141.1z"/>
					<circle class="st20" cx="93" cy="141.1" r="1"/>
				</g>
				<path class="st27" d="M103.7,159.6c0,0,3,0.7,3.1,1.2c0.1,0.4-1.8-0.1-1.8-0.1s1.4,1,2.2,1.5c0.8,0.4,0.2,1.4-1.4,0.9
					c-1.7-0.4-2.7-2.2-2.7-2.2L103.7,159.6z"/>
				<path class="st27" d="M90.1,149.6l1.9,5.6l12.2,4.5l-0.6,1.4c0,0-7.8-0.5-12.9-2.7c-2.7-1.2-4.7-4-6.1-6.5
					c-1-1.9,0.2-4.2,2.3-4.4l0,0C88.3,147.4,89.6,148.2,90.1,149.6z"/>
				<path class="st11" d="M88.9,133.1c0,0-1.5-2-3.5-0.3c-2,1.7-1.1,4.5,0.9,3.7"/>
				<path class="st11" d="M88.7,133.1l-1.9,4.8c0,0-0.1,1.6,0.9,1.9c0.5-2.2,3.6-0.4,5.2-3.4c0.8,2.5,1.5,3,1.5,3
					S96.6,133.1,88.7,133.1z"/>
				<path class="st11" d="M78.4,213.1l-0.5,4.3h0c0,0-1.9-0.3-3.7,2.1c5.4,0,7.1,0,7.1,0l1.3-6.4H78.4z"/>
				<path class="st11" d="M103.1,219.5c-1.9-2.4-3.7-2.1-3.7-2.1h-0.1l-0.5-4.3h-4.2l1.3,6.4l0,0l0,0
					C96,219.5,97.7,219.5,103.1,219.5z"/>
			</g>
			<path class="st4" d="M59.3,219.5c0,0-23.7-29.6-11.7-37.2c12-7.6,16.4,24,16.4,24s0.1-21.6,8.8-18.9c8.7,2.7-3.5,32.1-3.5,32.1
				H59.3z"/>
			<path class="st4" d="M338.4,219.5c0,0,17.7-22.1,8.7-27.8c-9-5.7-12.3,17.9-12.3,17.9s-0.1-16.1-6.6-14.1c-6.5,2,2.6,24,2.6,24
				H338.4z"/>
			<line class="st30" x1="387.2" y1="219.3" x2="5.6" y2="219.3"/>
		</g>
	</g>
</g>
<g id="DESIGNED_BY_FREEPIK">
</g>
</svg>
