<?xml version="1.0" encoding="utf-8"?>
<!-- Generator: Adobe Illustrator 23.0.1, SVG Export Plug-In . SVG Version: 6.00 Build 0)  -->
<svg version="1.1" xmlns="http://www.w3.org/2000/svg" xmlns:xlink="http://www.w3.org/1999/xlink" x="0px" y="0px"
	 viewBox="0 0 385.1 330.1" style="enable-background:new 0 0 385.1 330.1;" xml:space="preserve">
<style type="text/css">
	.st0{display:none;}
	.st1{fill:#F4F3FF;}
	.st2{fill:#13084A;}
	.st3{opacity:0.46;}
	.st4{fill:#FFFFFF;}
	.st5{fill:#E4E4F9;}
	.st6{fill:#90AEE4;}
	.st7{fill:#E3E1FF;}
	.st8{fill:#A4A4ED;}
	.st9{fill:#FC6681;}
	.st10{fill:#BDD4EC;}
	.st11{fill:#766CFF;}
	.st12{fill:#EDEDF9;}
	.st13{fill:#DCDCEF;}
	.st14{fill:#06005A;}
	.st15{opacity:0.43;fill:#FFFFFF;}
	.st16{fill:#000033;}
	.st17{fill:#EA496C;}
	.st18{fill:#FF948C;}
	.st19{fill:#EF7E7B;}
	.st20{opacity:0.51;fill:#F96662;}
	.st21{fill:#F96662;}
	.st22{fill:#00001E;}
	.st23{fill:#080866;}
	.st24{fill:#ECEBF2;}
	.st25{fill:#F25375;}
	.st26{fill:#6C97D3;}
</style>
<g id="BACKGROUND" class="st0">
</g>
<g id="OBJECTS">
	<g>
		<g>
			<g>
				<path class="st1" d="M125.5,314.1c-33,3-63.3-18.9-84.5-44.4c-20.5-24.7-36-55.5-34-87.5c1.3-21.5,10.8-42.4,26.1-57.6
					c11-10.9,25.9-19.1,41.2-17.5c18.5,1.9,33.5,17.3,51.9,19.2c18.8,2,35.8-10,52-19.9c14.5-8.9,30.4-16.5,47.4-17.9
					s35.3,4.6,45.2,18.5c7.7,10.8,9.7,25.2,18.7,34.9c9.4,10.2,24.1,12.8,37.2,17.3c22.3,7.6,43.6,23.8,49,46.8
					c5.1,21.5-4.7,44-18.5,61.2c-26.1,32.6-67.5,52.5-109.3,52.4c-8.6,0-17.4-0.9-25.2-4.5"/>
			</g>
			<g>
				<g>
					<path class="st1" d="M312.8,75.4c-55.8,0.5-74-7.1-80.1-15.2c-6-8-9.4-18.2-8.6-28.2c0.8-8.6,5.6-17.7,13.9-20
						c6.6-1.9,14,1.1,18.4,6.4c4.7,5.8,6.2,14,12,18.8c-1.2-9.9,7.7-19.8,17.7-19.7c10,0.1,18.6,10.3,17.2,20.2
						c3.7-5.7,10.7-9.4,17.4-8c6.6,1.5,11.6,8.9,9.4,15.3c9.6-5.6,22.8-3.9,30.6,3.9c1.6,1.6,3,3.4,3.6,5.5
						c1.3,4.4-0.9,9.2-4.3,12.2c-3.5,3-8,4.4-12.4,5.5C336.3,75.2,324.5,76.2,312.8,75.4"/>
				</g>
				<g>
					<path class="st1" d="M74.6,80.8c-8.5-0.2-16.8-4.1-22.3-10.4c-2.9-3.3-5.1-7.4-5.3-11.7c-0.2-4.4,1.8-9,5.7-11.1
						c5.6-3,12.3,0.1,17.9,3.1c0.3-3.7-1.2-7.2-2.5-10.7c-1.4-3.7-2.6-7.5-2.8-11.4C65,23.5,67,18.2,70.7,14.6
						C74.5,11,79.9,9.1,85,10c5.8,1,10.7,5.3,13.4,10.6c2.7,5.2,3.6,11.2,3.6,17.1c2.3-5,6.8-9.1,12.2-10.3
						c5.4-1.2,11.5,0.9,14.6,5.5c3.1,4.6,2.4,11.5-1.9,15c3.6-1,7.5-1.6,11.2-0.9c3.7,0.7,7.3,2.8,9.1,6.1c1.8,3.3,1.3,7.9-1.7,10.3
						c3-0.6,6.1-0.5,9,0.3c2,0.5,4,1.4,4.9,3.2c0.9,1.7,0.5,3.8-0.6,5.4c-1,1.6-2.6,2.8-4.3,3.8C147.9,80,130.8,82.8,74.6,80.8"/>
				</g>
				<g>
					<path class="st1" d="M333.5,133.1c-4-0.1-7.9-1.9-10.5-4.9c-1.3-1.5-2.4-3.4-2.5-5.5c-0.1-2,0.8-4.2,2.7-5.2
						c2.6-1.4,5.8,0,8.4,1.5c0.1-1.7-0.6-3.4-1.2-5c-0.7-1.7-1.2-3.5-1.3-5.3c-0.1-2.4,0.9-4.9,2.6-6.6c1.7-1.7,4.3-2.6,6.7-2.1
						c2.7,0.5,5,2.5,6.3,4.9c1.3,2.4,1.7,5.3,1.7,8c1.1-2.4,3.2-4.3,5.7-4.8s5.4,0.4,6.8,2.6s1.1,5.4-0.9,7c1.7-0.5,3.5-0.7,5.2-0.4
						c1.7,0.3,3.4,1.3,4.2,2.9c0.8,1.6,0.6,3.7-0.8,4.8c1.4-0.3,2.8-0.2,4.2,0.1c0.9,0.2,1.9,0.7,2.3,1.5c0.4,0.8,0.2,1.8-0.3,2.5
						s-1.2,1.3-2,1.8C367.8,132.7,359.8,134,333.5,133.1"/>
				</g>
			</g>
			<g>
				<g>
					<path class="st2" d="M28.9,323.1c2.5,0,4.9,0,7.4,0c6.7,0,13.3,0,20,0c9.9,0,19.7,0,29.6,0c12,0,24.1,0,36.1,0
						c13.1,0,26.3,0,39.4,0c13.3,0,26.7,0,40,0c12.4,0,24.7,0,37.1,0c10.5,0,21,0,31.4,0c7.5,0,15.1,0,22.6,0c3.6,0,7.1,0.1,10.7,0
						c0.2,0,0.3,0,0.5,0c1.1,0,1.1-2,0-2c-2.5,0-4.9,0-7.4,0c-6.7,0-13.3,0-20,0c-9.9,0-19.7,0-29.6,0c-12,0-24.1,0-36.1,0
						c-13.1,0-26.3,0-39.4,0c-13.3,0-26.7,0-40,0c-12.4,0-24.7,0-37.1,0c-10.5,0-21,0-31.4,0c-7.5,0-15.1,0-22.6,0
						c-3.6,0-7.1-0.1-10.7,0c-0.2,0-0.3,0-0.5,0C27.8,321.1,27.8,323.1,28.9,323.1L28.9,323.1z"/>
				</g>
				<g>
					<path class="st2" d="M319.9,323.1c2.4,0,4.9,0,7.3,0c3.9,0,7.7,0,11.6,0c0.9,0,1.8,0,2.6,0c0.9,0,0.9-2,0-2c-2.4,0-4.9,0-7.3,0
						c-3.9,0-7.7,0-11.6,0c-0.9,0-1.8,0-2.6,0C319,321.1,319,323.1,319.9,323.1L319.9,323.1z"/>
				</g>
			</g>
			<g class="st3">
				<path class="st4" d="M205.3,64.2c1.3,0,1.3-2,0-2C204,62.2,204,64.2,205.3,64.2L205.3,64.2z"/>
			</g>
			<g>
				<g>
					<g>
						<g>
							<g>
								<path class="st5" d="M133.1,194.5c-4.5-2.5-8.9-5.3-12.9-8.5c-4-3.2-7.8-6.7-11.2-10.4c-3.5-3.8-6.7-7.9-9.5-12.2
									c-2.8-4.3-5.3-8.8-7.3-13.5c-2.1-4.7-3.8-9.6-5-14.5c-0.2-0.6-0.3-1.2-0.4-1.9c-0.1-0.3-0.5-0.1-0.4,0.1
									c1.2,5.1,2.8,10,4.8,14.8c2,4.7,4.4,9.3,7.1,13.7c2.7,4.4,5.8,8.5,9.2,12.4c3.4,3.9,7.1,7.5,11.2,10.8
									c4,3.3,8.2,6.2,12.7,8.8c0.6,0.3,1.1,0.6,1.7,0.9C133.1,195,133.3,194.6,133.1,194.5L133.1,194.5z"/>
							</g>
							<g>
								<path class="st5" d="M87.6,137c-3.2-1.4-6.5-5.7-7.1-9.9c-0.2-1.1-0.3-2.4,0-3.6c0.3-1.2,0.9-2.4,1.8-3
									c0.9-0.6,2-0.6,2.9-0.2c2.3,1,3.6,4,3.8,7.1C89.2,130.7,88.4,133.9,87.6,137"/>
							</g>
							<g>
								<path class="st5" d="M91.6,148c-3.1,1.7-8.5,1.7-12.2-0.3c-1-0.5-2-1.2-2.8-2.2c-0.8-0.9-1.3-2.1-1.3-3.2
									c0.1-1.1,0.8-1.9,1.6-2.4c2.2-1.2,5.4-0.4,8,1.3C87.4,142.9,89.6,145.5,91.6,148"/>
							</g>
							<g>
								<path class="st5" d="M91.2,148.5c-1.1-3.3-0.2-8.6,2.4-12c0.7-0.9,1.6-1.8,2.6-2.4c1.1-0.6,2.3-0.9,3.4-0.7
									c1.1,0.3,1.8,1.1,2.1,2c0.8,2.4-0.5,5.4-2.7,7.6C97,145.4,94.1,147,91.2,148.5"/>
							</g>
							<g>
								<path class="st5" d="M99.6,163.1c-2.8,2.1-8.1,3-12.1,1.6c-1.1-0.4-2.2-0.9-3.1-1.7c-0.9-0.8-1.7-1.9-1.8-3
									c-0.1-1.1,0.5-2,1.2-2.6c2-1.5,5.2-1.3,8.1,0C94.7,158.7,97.2,160.9,99.6,163.1"/>
							</g>
							<g>
								<path class="st5" d="M99.3,163.6c-1.6-3.1-1.5-8.5,0.6-12.2c0.6-1,1.3-2,2.2-2.8c1-0.8,2.2-1.3,3.3-1.2
									c1.1,0.1,1.9,0.8,2.4,1.7c1.2,2.2,0.3,5.4-1.5,7.9C104.5,159.6,101.9,161.7,99.3,163.6"/>
							</g>
							<g>
								<path class="st5" d="M110.4,177.1c-2.5,2.5-7.6,4.1-11.7,3.3c-1.1-0.2-2.3-0.6-3.3-1.2c-1-0.7-1.9-1.7-2.2-2.7
									c-0.3-1.1,0.2-2.1,0.9-2.8c1.8-1.8,5-2,8-1.1C105,173.4,107.8,175.2,110.4,177.1"/>
							</g>
							<g>
								<path class="st5" d="M110.3,177.6c-2-2.8-2.7-8.2-1.1-12.1c0.4-1.1,1-2.2,1.8-3.1c0.8-0.9,2-1.6,3.1-1.6
									c1.1-0.1,2,0.5,2.6,1.3c1.5,2,1.1,5.3-0.3,8.1C114.9,173,112.6,175.4,110.3,177.6"/>
							</g>
							<g>
								<path class="st5" d="M122.6,187.8c-1.5,2.3-5.3,4.4-8.7,4.5c-0.9,0-1.9-0.1-2.8-0.4c-0.9-0.3-1.8-1-2.1-1.8
									c-0.4-0.8-0.2-1.7,0.2-2.3c1.1-1.7,3.6-2.4,6.1-2.2C117.8,185.8,120.2,186.8,122.6,187.8"/>
							</g>
							<g>
								<path class="st5" d="M122.5,188.3c-2-1.9-3.4-6-2.9-9.3c0.2-0.9,0.4-1.9,0.9-2.7c0.5-0.8,1.3-1.6,2.1-1.8
									c0.9-0.2,1.7,0.1,2.2,0.6c1.5,1.4,1.7,4,1.1,6.4C125.4,183.9,124,186.1,122.5,188.3"/>
							</g>
						</g>
						<g>
							<g>
								<path class="st6" d="M124.8,286.9c-3.6,3.8-8.4,6.2-13.5,7.3c-5.1,1.1-10.4,1-15.5,0.3c-15.6-2.3-30.3-10.5-40.4-22.8
									c1.7-1.9,4.2-3,6.7-3.9c9.3-3.2,19.5-3.9,29.2-2c9.7,1.9,18.8,6.5,26.2,13C119.6,280.7,123.5,284.4,124.8,286.9"/>
							</g>
							<g>
								<g>
									<path class="st4" d="M60.1,272.1c8.2,1.4,16.3,3.5,24.3,5.8c8,2.3,16,4.7,24.1,6.6c4.5,1.1,9.1,2,13.7,2.6
										c0.4,0.1,0.5-0.6,0.1-0.6c-8.2-1.1-16.3-3.1-24.4-5.3c-8-2.2-16-4.6-24.1-6.7c-4.5-1.1-9.1-2.2-13.7-2.9
										C59.8,271.4,59.7,272.1,60.1,272.1L60.1,272.1z"/>
								</g>
								<g>
									<path class="st4" d="M111.6,284.7c-2.4,1.3-4.9,2.3-7.5,3.3c-2.6,0.9-5.2,1.6-7.9,2.2c-1.5,0.3-3,0.6-4.6,0.7
										c-0.4,0.1-0.4,0.7,0,0.6c2.7-0.3,5.5-0.9,8.1-1.6c2.7-0.7,5.3-1.6,7.8-2.7c1.4-0.6,2.9-1.3,4.2-2c0.2-0.1,0.2-0.3,0.1-0.5
										C112,284.6,111.8,284.6,111.6,284.7L111.6,284.7z"/>
								</g>
								<g>
									<path class="st4" d="M103,282.3c-1.3-2.2-3.1-4.2-5.1-5.9c-2-1.8-4.2-3.3-6.4-4.7c-1.3-0.8-2.6-1.6-3.8-2.3
										c-0.4-0.2-0.6,0.4-0.3,0.6c2.2,1.3,4.5,2.7,6.6,4.2c2.1,1.5,4.1,3.1,5.9,5.1c1,1.1,1.8,2.2,2.6,3.5
										C102.7,283.1,103.2,282.7,103,282.3L103,282.3z"/>
								</g>
								<g>
									<path class="st4" d="M88.7,278.6c-3.4,1.3-7,2.1-10.6,2.5c-1,0.1-2,0.2-3.1,0.2c-0.4,0-0.4,0.7,0,0.6
										c3.7-0.1,7.3-0.6,10.9-1.7c1-0.3,2-0.6,3-1C89.3,279.1,89.1,278.4,88.7,278.6L88.7,278.6z"/>
								</g>
								<g>
									<path class="st4" d="M78.8,275.6c-2.4-2.7-5.3-4.9-8.6-6.5c-0.9-0.4-1.9-0.8-2.8-1.1c-0.4-0.1-0.6,0.5-0.2,0.6
										c3.3,1.1,6.4,2.9,9,5.3c0.7,0.7,1.5,1.4,2.1,2.1C78.6,276.3,79.1,275.9,78.8,275.6L78.8,275.6z"/>
								</g>
							</g>
						</g>
						<g>
							<g>
								<path class="st7" d="M241.1,306.5c-1.5-9,0.4-18.3,4.2-26.6c3.8-8.3,9.6-15.5,16.1-21.9c19.8-19.4,47-31,74.7-32
									c0.8,4.5-0.3,9.1-1.8,13.4c-5.5,16.4-15.3,31.3-28.3,42.7c-13,11.4-29,19.3-46,22.6C255.3,305.8,245.9,307.3,241.1,306.5"/>
							</g>
							<g>
								<g>
									<path class="st8" d="M330.5,232.2c-10.7,9.9-22.3,18.9-33.9,27.6c-11.7,8.7-23.5,17.3-34.8,26.6
										c-6.3,5.2-12.4,10.6-18.2,16.3c-0.5,0.5,0.2,1.4,0.8,0.9c10.4-10.3,21.7-19.4,33.4-28.2c11.6-8.8,23.5-17.3,35-26.4
										c6.4-5.1,12.7-10.3,18.6-15.9C331.8,232.5,331.1,231.7,330.5,232.2L330.5,232.2z"/>
								</g>
								<g>
									<path class="st8" d="M258.1,290.5c0.8-4.7,2-9.3,3.4-13.9c1.5-4.5,3.2-9,5.3-13.3c1.2-2.4,2.4-4.8,3.8-7.1
										c0.4-0.6-0.6-1.3-1-0.6c-2.4,4.2-4.6,8.5-6.4,13c-1.8,4.5-3.4,9.1-4.6,13.8c-0.7,2.7-1.2,5.4-1.7,8.1
										c-0.1,0.3,0.2,0.6,0.5,0.6C257.8,291.1,258.1,290.8,258.1,290.5L258.1,290.5z"/>
								</g>
								<g>
									<path class="st8" d="M270.6,281c4.6,0.5,9.2,0.2,13.7-0.7c4.6-0.9,9-2.3,13.4-3.9c2.5-0.9,4.9-1.9,7.4-2.9
										c0.7-0.3,0.2-1.3-0.5-1c-4.3,1.7-8.5,3.4-12.9,4.8c-4.3,1.4-8.8,2.4-13.3,2.8c-2.5,0.2-5.1,0.2-7.6-0.1
										C269.9,279.8,269.9,281,270.6,281L270.6,281z"/>
								</g>
								<g>
									<path class="st8" d="M291.1,265.1c1.8-6.1,4.5-12,7.9-17.4c1-1.5,2-3,3-4.4c0.4-0.6-0.5-1.2-1-0.6
										c-3.8,5.2-6.9,10.9-9.3,16.9c-0.7,1.7-1.3,3.4-1.8,5.2C289.8,265.4,290.9,265.8,291.1,265.1L291.1,265.1z"/>
								</g>
								<g>
									<path class="st8" d="M305.8,254.5c6.3-0.4,12.5-2.2,18.2-5.1c1.6-0.8,3.1-1.7,4.6-2.7c0.6-0.4,0-1.3-0.6-0.9
										c-5.1,3.4-10.9,5.8-17,7c-1.7,0.3-3.5,0.5-5.2,0.7C304.9,253.4,305,254.6,305.8,254.5L305.8,254.5z"/>
								</g>
							</g>
						</g>
						<g>
							<g>
								<path class="st9" d="M128.2,181.1c-1.4-5-2.4-10.1-2.9-15.2c-0.5-5.1-0.6-10.2-0.3-15.3c0.3-5.2,1-10.3,2.2-15.3
									c1.1-5,2.6-9.9,4.6-14.7c1.9-4.8,4.2-9.4,6.9-13.7c0.3-0.5,0.7-1.1,1-1.6c0.2-0.2-0.2-0.5-0.4-0.2c-2.8,4.4-5.2,9-7.3,13.7
									c-2,4.7-3.6,9.6-4.9,14.6c-1.2,5-2,10.1-2.4,15.2c-0.4,5.2-0.4,10.4,0,15.5c0.4,5.1,1.3,10.2,2.6,15.2
									c0.2,0.6,0.3,1.2,0.5,1.9C127.9,181.5,128.3,181.4,128.2,181.1L128.2,181.1z"/>
							</g>
							<g>
								<path class="st9" d="M137.7,108.4c-1.2-3.3-0.4-8.6,2.1-12c0.7-0.9,1.5-1.8,2.6-2.5c1-0.6,2.3-1,3.4-0.8
									c1.1,0.2,1.8,1.1,2.1,2c0.9,2.4-0.4,5.4-2.5,7.7C143.3,105.1,140.5,106.8,137.7,108.4"/>
							</g>
							<g>
								<path class="st9" d="M132.6,118.9c-3.3-1-7.1-4.9-8.3-8.9c-0.3-1.1-0.5-2.3-0.4-3.5c0.1-1.2,0.6-2.5,1.4-3.2
									c0.8-0.7,1.9-0.8,2.9-0.5c2.4,0.7,4.1,3.5,4.7,6.6C133.3,112.4,133,115.7,132.6,118.9"/>
							</g>
							<g>
								<path class="st9" d="M132,119c1.6-3.1,6-6.1,10.3-6.6c1.2-0.1,2.4-0.1,3.6,0.2c1.2,0.3,2.3,1,2.9,2c0.6,1,0.5,2,0,2.9
									c-1.1,2.2-4.2,3.4-7.3,3.4C138.2,120.9,135,120,132,119"/>
							</g>
							<g>
								<path class="st9" d="M127.4,135.2c-3.4-0.5-7.8-3.7-9.6-7.5c-0.5-1.1-0.9-2.2-1-3.4c-0.1-1.2,0.2-2.5,0.9-3.3
									c0.7-0.9,1.8-1.1,2.8-1c2.5,0.4,4.6,2.9,5.6,5.8C127.1,128.6,127.3,132,127.4,135.2"/>
							</g>
							<g>
								<path class="st9" d="M126.8,135.4c1.1-3.3,5-7,9.1-8.1c1.1-0.3,2.3-0.5,3.6-0.3c1.2,0.1,2.4,0.7,3.1,1.5
									c0.7,0.9,0.8,1.9,0.4,2.9c-0.8,2.4-3.6,4-6.7,4.5C133.3,136.3,130,135.9,126.8,135.4"/>
							</g>
							<g>
								<path class="st9" d="M124.9,152.7c-3.5,0-8.2-2.6-10.5-6.1c-0.6-1-1.2-2.1-1.4-3.3c-0.2-1.2-0.1-2.5,0.4-3.4
									c0.6-0.9,1.6-1.3,2.6-1.3c2.5,0,4.9,2.2,6.4,5C123.8,146.3,124.4,149.5,124.9,152.7"/>
							</g>
							<g>
								<path class="st9" d="M124.4,153c0.6-3.4,4-7.6,7.9-9.3c1.1-0.5,2.2-0.8,3.5-0.8c1.2,0,2.5,0.3,3.3,1c0.8,0.8,1,1.8,0.8,2.8
									c-0.4,2.5-3,4.4-6,5.4C130.9,153,127.6,153.1,124.4,153"/>
							</g>
							<g>
								<path class="st9" d="M125.7,168.9c-2.7,0.5-6.9-0.7-9.3-3.1c-0.7-0.7-1.3-1.4-1.7-2.3c-0.4-0.9-0.5-2-0.2-2.8
									c0.3-0.8,1-1.3,1.8-1.5c2-0.4,4.2,0.9,5.8,2.8C123.8,164.1,124.8,166.5,125.7,168.9"/>
							</g>
							<g>
								<path class="st9" d="M125.4,169.2c-0.1-2.8,1.9-6.6,4.7-8.6c0.8-0.5,1.6-1,2.6-1.2c1-0.2,2-0.2,2.8,0.3
									c0.8,0.5,1.1,1.3,1.1,2c0.1,2-1.7,4-3.8,5.2C130.5,168.1,127.9,168.7,125.4,169.2"/>
							</g>
						</g>
						<g>
							<g>
								<path class="st10" d="M255.4,251.8c1.6-4.9,3.5-9.7,5.9-14.3c2.3-4.5,5.1-8.9,8.1-13c3.1-4.2,6.5-8.1,10.2-11.7
									c3.7-3.6,7.6-6.9,11.9-9.8c4.2-2.9,8.7-5.5,13.3-7.7c0.6-0.3,1.2-0.5,1.7-0.8c0.3-0.1,0-0.5-0.2-0.4
									c-4.7,2.1-9.3,4.6-13.6,7.5c-4.3,2.9-8.3,6.1-12.1,9.6c-3.8,3.5-7.2,7.3-10.4,11.4c-3.2,4.1-6,8.5-8.5,13
									c-2.4,4.5-4.5,9.3-6.2,14.1c-0.2,0.6-0.4,1.2-0.6,1.8C254.9,251.9,255.3,252.1,255.4,251.8L255.4,251.8z"/>
							</g>
							<g>
								<path class="st10" d="M303.1,196.1c0.8-3.4,4.4-7.4,8.3-8.9c1.1-0.4,2.3-0.7,3.5-0.7c1.2,0,2.5,0.4,3.3,1.2
									c0.8,0.8,0.9,1.9,0.7,2.8c-0.6,2.4-3.3,4.3-6.3,5.1C309.6,196.5,306.3,196.4,303.1,196.1"/>
							</g>
							<g>
								<path class="st10" d="M293.1,202.1c-2.2-2.7-3.3-8-2.1-12c0.3-1.1,0.8-2.2,1.6-3.2c0.8-1,1.8-1.7,2.9-1.9
									c1.1-0.1,2.1,0.4,2.7,1.1c1.6,1.9,1.5,5.2,0.3,8.1C297.3,197.1,295.2,199.7,293.1,202.1"/>
							</g>
							<g>
								<path class="st10" d="M292.5,201.9c3-1.7,8.4-1.8,12.2,0.1c1,0.5,2.1,1.2,2.9,2.1c0.8,0.9,1.4,2.1,1.3,3.2
									c0,1.1-0.7,2-1.6,2.4c-2.2,1.2-5.4,0.5-8-1.2C296.7,206.9,294.6,204.4,292.5,201.9"/>
							</g>
							<g>
								<path class="st10" d="M279.8,212.9c-2.6-2.3-4.5-7.4-3.9-11.6c0.2-1.2,0.5-2.3,1.1-3.4c0.6-1.1,1.6-2,2.6-2.3
									c1.1-0.3,2.1,0.1,2.8,0.7c1.9,1.7,2.2,4.9,1.5,7.9C283.2,207.3,281.6,210.2,279.8,212.9"/>
							</g>
							<g>
								<path class="st10" d="M279.3,212.8c2.7-2.1,8-3.1,12.1-1.8c1.1,0.4,2.2,0.9,3.2,1.7c0.9,0.8,1.7,1.9,1.8,3
									c0.1,1.1-0.4,2-1.2,2.7c-2,1.6-5.2,1.3-8.1,0.1C284.2,217.1,281.6,214.9,279.3,212.8"/>
							</g>
							<g>
								<path class="st10" d="M268.2,226.2c-2.9-1.9-5.5-6.7-5.5-10.9c0-1.2,0.1-2.4,0.6-3.5c0.5-1.1,1.3-2.2,2.2-2.6
									c1-0.5,2.1-0.2,2.9,0.3c2.1,1.4,2.9,4.5,2.6,7.6C270.7,220.2,269.5,223.3,268.2,226.2"/>
							</g>
							<g>
								<path class="st10" d="M267.6,226.2c2.4-2.5,7.5-4.2,11.7-3.5c1.1,0.2,2.3,0.6,3.4,1.2c1,0.6,1.9,1.6,2.2,2.7
									c0.3,1.1-0.1,2.1-0.8,2.8c-1.7,1.8-5,2.1-8,1.2C273.1,229.8,270.2,228,267.6,226.2"/>
							</g>
							<g>
								<path class="st10" d="M260,240.2c-2.6-1-5.4-4.3-6.1-7.6c-0.2-0.9-0.3-1.9-0.1-2.9c0.2-1,0.6-1.9,1.3-2.4
									c0.7-0.5,1.6-0.5,2.3-0.2c1.9,0.7,3,3.1,3.3,5.6C261,235.1,260.5,237.7,260,240.2"/>
							</g>
							<g>
								<path class="st10" d="M259.5,240.3c1.5-2.4,5.2-4.5,8.6-4.6c0.9,0,1.9,0,2.8,0.4c0.9,0.3,1.8,1,2.2,1.7
									c0.4,0.8,0.2,1.7-0.2,2.3c-1,1.7-3.6,2.4-6,2.3C264.4,242.2,261.9,241.3,259.5,240.3"/>
							</g>
						</g>
						<g>
							<g>
								<path class="st10" d="M104.6,252.1c-5.1,1.1-10.2,1.7-15.4,1.9c-5.1,0.2-10.2,0-15.3-0.7c-5.1-0.6-10.2-1.7-15.2-3.2
									c-4.9-1.5-9.7-3.3-14.3-5.5c-4.6-2.2-9.1-4.8-13.2-7.8c-0.5-0.4-1-0.7-1.6-1.1c-0.2-0.2-0.5,0.2-0.2,0.4
									c4.2,3.1,8.6,5.8,13.2,8.2c4.6,2.3,9.4,4.3,14.3,5.8c4.9,1.6,10,2.7,15,3.4c5.1,0.8,10.3,1.1,15.5,1
									c5.1-0.1,10.3-0.6,15.4-1.6c0.6-0.1,1.3-0.2,1.9-0.4C105,252.5,104.9,252.1,104.6,252.1L104.6,252.1z"/>
							</g>
							<g>
								<path class="st10" d="M32.7,237.9c-3.3,1-8.6-0.2-11.8-2.9c-0.9-0.8-1.7-1.6-2.3-2.7c-0.6-1.1-0.9-2.4-0.6-3.4
									c0.3-1.1,1.2-1.7,2.1-2c2.4-0.7,5.3,0.7,7.5,3C29.8,232.1,31.4,235,32.7,237.9"/>
							</g>
							<g>
								<path class="st10" d="M42.9,243.7c-1.3,3.2-5.3,6.8-9.5,7.7c-1.1,0.3-2.4,0.4-3.6,0.2c-1.2-0.2-2.4-0.8-3.1-1.6
									c-0.7-0.9-0.7-2-0.3-2.9c0.9-2.4,3.8-3.8,6.9-4.2C36.5,242.5,39.7,243,42.9,243.7"/>
							</g>
							<g>
								<path class="st10" d="M43,244.3c-3-1.8-5.7-6.4-5.9-10.7c0-1.2,0-2.4,0.4-3.5c0.4-1.2,1.2-2.2,2.1-2.7
									c1-0.5,2.1-0.3,2.9,0.2c2.2,1.3,3.1,4.4,2.9,7.5C45.3,238.2,44.2,241.3,43,244.3"/>
							</g>
							<g>
								<path class="st10" d="M58.8,250c-0.7,3.4-4.2,7.5-8.2,9.1c-1.1,0.4-2.3,0.7-3.5,0.7c-1.2,0-2.5-0.4-3.3-1.1
									c-0.8-0.8-1-1.9-0.8-2.8c0.5-2.5,3.2-4.4,6.2-5.2C52.2,249.7,55.6,249.8,58.8,250"/>
							</g>
							<g>
								<path class="st10" d="M58.9,250.5c-3.2-1.3-6.6-5.5-7.5-9.6c-0.2-1.1-0.3-2.4-0.1-3.6c0.2-1.2,0.8-2.4,1.7-3
									c0.9-0.7,2-0.6,2.9-0.3c2.3,0.9,3.7,3.9,4,7C60.3,244.1,59.7,247.4,58.9,250.5"/>
							</g>
							<g>
								<path class="st10" d="M76.1,253.6c-0.3,3.5-3.1,8-6.8,10.1c-1,0.6-2.1,1.1-3.4,1.2c-1.2,0.2-2.5,0-3.4-0.7
									c-0.9-0.7-1.2-1.7-1.2-2.7c0.2-2.5,2.5-4.8,5.4-6C69.6,254.3,72.9,253.8,76.1,253.6"/>
							</g>
							<g>
								<path class="st10" d="M76.4,254.1c-3.4-0.9-7.4-4.5-8.8-8.5c-0.4-1.1-0.7-2.3-0.6-3.5c0.1-1.2,0.5-2.5,1.3-3.2
									c0.8-0.8,1.9-0.9,2.8-0.7c2.4,0.6,4.2,3.3,5,6.4C76.8,247.6,76.7,250.9,76.4,254.1"/>
							</g>
							<g>
								<path class="st10" d="M92.3,253.9c0.4,2.8-1.1,6.8-3.7,9c-0.7,0.6-1.5,1.2-2.4,1.5c-0.9,0.3-2,0.4-2.8,0
									c-0.8-0.4-1.2-1.1-1.3-1.9c-0.3-2,1.2-4.1,3.2-5.6C87.4,255.5,89.9,254.6,92.3,253.9"/>
							</g>
							<g>
								<path class="st10" d="M92.6,254.2c-2.8-0.1-6.5-2.3-8.2-5.2c-0.5-0.8-0.9-1.7-1.1-2.7c-0.2-1,0-2,0.5-2.7
									c0.5-0.7,1.3-1,2.1-1c2,0.1,3.9,1.9,4.9,4.2C91.9,249.1,92.3,251.7,92.6,254.2"/>
							</g>
						</g>
						<g>
							<g>
								<path class="st7" d="M129.6,269.2c-10.1,1.2-20.4-1.4-29.3-6.1S83.6,251.6,76.8,244c-20.5-23.1-32-53.9-31.6-84.8
									c5-0.7,10.1,0.8,14.8,2.7c18,6.9,34,18.7,46,33.8c12,15,20,33.3,22.8,52.3C129.6,253.4,130.8,263.9,129.6,269.2"/>
							</g>
							<g>
								<g>
									<path class="st8" d="M51.6,165.8c10.5,12.4,19.8,25.8,29,39.2c9.1,13.5,18,27.1,27.8,40.1c5.4,7.3,11.1,14.4,17.2,21.1
										c0.5,0.6,1.5-0.2,1-0.8c-10.9-12.1-20.5-25.2-29.7-38.6c-9.2-13.4-18.1-27.1-27.6-40.3c-5.3-7.4-10.8-14.6-16.7-21.6
										C52.1,164.4,51.1,165.1,51.6,165.8L51.6,165.8z"/>
								</g>
								<g>
									<path class="st8" d="M112.7,249.4c-5.2-1.2-10.3-2.7-15.3-4.5c-5-1.9-9.8-4.1-14.5-6.6c-2.6-1.4-5.2-3-7.7-4.6
										c-0.7-0.4-1.4,0.6-0.7,1c4.5,2.9,9.3,5.6,14.1,7.9c4.9,2.3,9.9,4.2,15.1,5.8c2.9,0.9,5.9,1.7,8.9,2.3
										c0.3,0.1,0.7-0.2,0.7-0.6C113.3,249.7,113,249.5,112.7,249.4L112.7,249.4z"/>
								</g>
								<g>
									<path class="st8" d="M102.8,235c0.8-5.1,0.7-10.2-0.1-15.3c-0.8-5.1-2.1-10.1-3.7-15.1c-0.9-2.8-1.8-5.6-2.8-8.4
										c-0.3-0.8-1.4-0.3-1.2,0.5c1.7,4.8,3.3,9.7,4.6,14.6c1.3,4.9,2.2,9.9,2.4,15c0.1,2.8-0.1,5.7-0.5,8.5
										C101.4,235.7,102.7,235.8,102.8,235L102.8,235z"/>
								</g>
								<g>
									<path class="st8" d="M86.1,211.4c-6.7-2.4-13.1-5.6-19-9.7c-1.6-1.1-3.2-2.3-4.8-3.6c-0.6-0.5-1.4,0.5-0.7,1
										c5.6,4.5,11.8,8.3,18.3,11.2c1.9,0.8,3.8,1.6,5.7,2.3C86.5,212.8,86.9,211.6,86.1,211.4L86.1,211.4z"/>
								</g>
								<g>
									<path class="st8" d="M75.2,194.5c-0.1-7.1-1.8-14.1-4.7-20.5c-0.8-1.8-1.8-3.6-2.8-5.3c-0.4-0.7-1.5,0-1.1,0.7
										c3.6,5.9,5.9,12.4,6.8,19.2c0.3,1.9,0.4,3.9,0.5,5.9C73.9,195.3,75.2,195.3,75.2,194.5L75.2,194.5z"/>
								</g>
							</g>
						</g>
					</g>
					<g>
						<g>
							<path class="st11" d="M111.8,318.4c-6.2,0-11.3-5-11.3-11.3l0,0c0-6.2,5-11.3,11.3-11.3h138.9c0.8,0,1.5-0.7,1.5-1.5v0
								c0-0.8-0.6-1.4-1.4-1.4H109.8c-8,0-14.4,6.4-14.4,14.4l0,0c0,8,6.4,14.4,14.4,14.4h140.6c0.9,0,1.7-0.8,1.7-1.7V320
								c0-0.9-0.7-1.6-1.6-1.6H111.8z"/>
							<path class="st12" d="M100.5,307.2L100.5,307.2c0,6.2,5,11.3,11.2,11.3h138.9l-0.2-0.8c-1.8-6.9-1.8-14.1,0-21l0.2-0.8H111.7
								C105.5,295.9,100.5,300.9,100.5,307.2z"/>
							<path class="st13" d="M103.8,309.4L103.8,309.4c0-6.2,5-11.3,11.2-11.3h135.1c0.1-0.5,0.2-1,0.3-1.5l0.2-0.8H111.7
								c-6.2,0-11.2,5-11.2,11.3l0,0c0,4.6,2.7,8.6,6.7,10.3C105.1,315.4,103.8,312.6,103.8,309.4z"/>
							<g>
								<rect x="142.6" y="304.5" class="st13" width="60.7" height="0.8"/>
							</g>
							<g>
								<rect x="180.7" y="312.4" class="st13" width="60.7" height="0.8"/>
							</g>
							<polygon class="st9" points="164.7,305 164.7,317.9 170.6,313.1 176.4,317.8 175.7,304.9 							"/>
						</g>
						<g>
							<path class="st14" d="M259.9,293h-135c-5.2,0-9.4-4.2-9.4-9.4v-2.5c0-5.2,4.2-9.4,9.4-9.4h135c5.2,0,9.4,4.2,9.4,9.4v2.5
								C269.3,288.8,265.1,293,259.9,293z"/>
							<rect x="245.6" y="271.7" class="st15" width="2.5" height="21.3"/>
							<rect x="234.4" y="271.7" class="st15" width="2.5" height="21.3"/>
							<path class="st16" d="M115.5,277.7v3l120.4-9H122.8C118.8,271.7,115.5,275.5,115.5,277.7z"/>
							<rect x="133.9" y="271.7" class="st15" width="2.5" height="21.3"/>
							<rect x="144.7" y="271.7" class="st15" width="2.5" height="21.3"/>
						</g>
						<g>
							<path class="st12" d="M123.8,257.1L123.8,257.1c0,6.2,4.7,11.3,10.4,11.3h129.5l-0.2-0.8c-1.7-6.9-1.7-14.1,0-21l0.2-0.8
								H134.2C128.4,245.8,123.8,250.9,123.8,257.1z"/>
							<g>
								<path class="st11" d="M134.3,268.4c-5.8,0-10.5-5-10.5-11.3l0,0c0-6.2,4.7-11.3,10.5-11.3h129.4c0.8,0,1.4-0.7,1.4-1.5v0
									c0-0.8-0.6-1.4-1.3-1.4H132.4c-7.4,0-13.4,6.4-13.4,14.4l0,0c0,8,6,14.4,13.4,14.4h131.1c0.9,0,1.6-0.8,1.6-1.7v-0.1
									c0-0.9-0.7-1.6-1.5-1.6H134.3z"/>
								<path class="st13" d="M126.8,259.3L126.8,259.3c0-6.2,4.7-11.3,10.4-11.3h126c0.1-0.5,0.2-1,0.3-1.5l0.2-0.8H134.2
									c-5.7,0-10.4,5-10.4,11.3v0c0,4.6,2.6,8.6,6.2,10.3C128,265.4,126.8,262.5,126.8,259.3z"/>
								<g>
									<g>
										<rect x="143.4" y="254.4" class="st13" width="60.7" height="0.8"/>
									</g>
									<g>
										<rect x="181.5" y="262.3" class="st13" width="60.7" height="0.8"/>
									</g>
								</g>
							</g>
						</g>
						<g>
							<path class="st9" d="M233.4,182.7c5.4,0,9.8-4.4,9.8-9.8l0,0c0-5.4-4.4-9.8-9.8-9.8H112.6c-0.7,0-1.3-0.6-1.3-1.3v0
								c0-0.7,0.5-1.2,1.2-1.2h122.6c6.9,0,12.5,5.6,12.5,12.5l0,0c0,6.9-5.6,12.5-12.5,12.5H112.8c-0.8,0-1.5-0.7-1.5-1.5v-0.1
								c0-0.8,0.6-1.4,1.4-1.4H233.4z"/>
							<path class="st12" d="M243.2,172.9L243.2,172.9c0,5.4-4.3,9.8-9.7,9.8H112.6l0.2-0.7c1.5-6,1.5-12.3,0-18.3l-0.2-0.7h120.9
								C238.9,163.1,243.2,167.5,243.2,172.9z"/>
							<path class="st13" d="M240.4,174.9L240.4,174.9c0-5.4-4.3-9.8-9.7-9.8H113.1c-0.1-0.4-0.2-0.8-0.3-1.3l-0.2-0.7h120.9
								c5.4,0,9.7,4.4,9.7,9.8l0,0c0,4-2.4,7.4-5.8,9C239.2,180.1,240.4,177.6,240.4,174.9z"/>
							<g>
								<rect x="153.8" y="170.6" class="st13" width="52.8" height="0.7"/>
							</g>
							<g>
								<rect x="168.6" y="177.1" class="st13" width="52.8" height="0.7"/>
							</g>
						</g>
						<g>
							<path class="st9" d="M252.1,242.9h-135c-5.2,0-9.4-4.2-9.4-9.4v-9.5c0-5.2,4.2-9.4,9.4-9.4h135c5.2,0,9.4,4.2,9.4,9.4v9.5
								C261.5,238.7,257.3,242.9,252.1,242.9z"/>
							<rect x="237.7" y="214.5" class="st15" width="2.5" height="28.3"/>
							<rect x="226.5" y="214.5" class="st15" width="2.5" height="28.3"/>
							<path class="st17" d="M107.6,221.8v4.7l120.4-11.9H114.9C110.9,214.5,107.6,217.8,107.6,221.8z"/>
							<rect x="126.1" y="214.5" class="st15" width="2.5" height="28.3"/>
							<rect x="136.8" y="214.5" class="st15" width="2.5" height="28.3"/>
						</g>
						<g>
							<path class="st11" d="M113.4,211.1c-5.1,0-9.2-5-9.2-11.3v0c0-6.2,4.1-11.3,9.2-11.3h113.2c0.7,0,1.2-0.7,1.2-1.5v0
								c0-0.8-0.5-1.4-1.1-1.4H111.8c-6.5,0-11.7,6.4-11.7,14.4l0,0c0,8,5.3,14.4,11.7,14.4h114.7c0.8,0,1.4-0.8,1.4-1.7v-0.1
								c0-0.9-0.6-1.6-1.3-1.6H113.4z"/>
							<path class="st12" d="M104.2,199.8L104.2,199.8c0,6.2,4.1,11.3,9.1,11.3h113.3l-0.2-0.8c-1.4-6.9-1.4-14.1,0-21l0.2-0.8
								H113.3C108.3,188.6,104.2,193.6,104.2,199.8z"/>
							<path class="st13" d="M106.9,202.1L106.9,202.1c0-6.2,4.1-11.3,9.1-11.3h110.2c0.1-0.5,0.2-1,0.3-1.5l0.2-0.8H113.3
								c-5,0-9.1,5-9.1,11.3v0c0,4.6,2.2,8.6,5.4,10.3C107.9,208.1,106.9,205.2,106.9,202.1z"/>
							<g>
								<rect x="138.5" y="197.1" class="st13" width="49.5" height="0.8"/>
							</g>
							<g>
								<rect x="169.6" y="205.1" class="st13" width="49.5" height="0.8"/>
							</g>
							<polygon class="st14" points="183.2,205.5 183.2,218.5 188,213.7 192.8,218.3 192.2,205.5 							"/>
						</g>
					</g>
				</g>
				<g>
					<g>
						<g>
							<g>
								<path class="st18" d="M211.2,48.9c-1,5.2-3.8,10-7.8,13.4c-0.1,0.1-0.3,0.3-0.3,0.4c0,0.2,0.1,0.4,0.2,0.5
									c0.5,0.6,1.2,0.8,1.9,1c2.7,0.8,5.4,1.2,8.2,1.2c0.5,0,1.1,0,1.5-0.4c0.3-0.2,0.4-0.6,0.6-1c1-2.8,1.9-5.8,2.5-8.7
									c0-0.1,0.1-0.3,0-0.4c-0.1-0.3-0.3-0.4-0.5-0.6c-1.7-1.1-3.3-2.5-4.5-4.1"/>
							</g>
							<g>
								<path class="st19" d="M218,55c-0.1-0.3-0.3-0.4-0.5-0.6c-1.7-1.1-3.3-2.5-4.5-4.1l-1.8-1.5c-0.1,0.5-0.2,0.9-0.3,1.4
									c0.2,0.4,0.3,0.9,0.3,1.5c0.1,2.1,2.2,4.2,3,6.2c1.1,2.6,1.1,5,0.2,7.5c0.2-0.1,0.3-0.1,0.5-0.2c0.3-0.2,0.4-0.6,0.6-1
									c1-2.8,1.9-5.8,2.5-8.7C218,55.3,218.1,55.2,218,55z"/>
							</g>
						</g>
						<g>
							<g>
								<path class="st14" d="M232.2,62.8c-1-2.2-1.1-4.8-0.3-7.1c0.4-1.2,1.1-2.3,1.3-3.6c0.3-1.8-0.5-3.7-1.4-5.3
									c-0.9-1.6-2-3.2-2.3-5.1c-0.5-2.4,0.4-5.1,2.3-6.7l2.1,1.1c-0.9,2.6-0.7,5.6,0.6,8c0.7,1.3,1.7,2.5,2,4c0.6,2.5-0.7,5-2,7.2
									c-1.3,2.2-2.7,4.6-2.3,7.1"/>
							</g>
							<g>
								<path class="st18" d="M223,23c3.1,0.3,6,1.9,7.9,4.4c1.9,2.5,2.6,5.7,2.1,8.8c-0.3,1.5-0.9,3-1.1,4.5
									c-0.2,1.5,0,3.3,1.1,4.4c0.4,0.4,0.8,0.7,1.1,1.2c0.4,0.4,0.6,0.8,0.3,1.3c-0.4,0.6-1.3,0.8-1.9,1.3c-0.3,0.2-0.5,0.7-0.7,1
									c-1.6,3.3-3.6,6.4-6,9.1c-0.1,0.1-0.3,0.3-0.5,0.4c-0.3,0.1-0.6,0-0.9-0.1c-3.1-1.3-6.2-2.6-8.9-4.5
									c-2.8-1.9-5.2-4.3-6.5-7.4c-1.2-2.9-1.4-6.2-0.4-9.2"/>
							</g>
							<g>
								<path class="st14" d="M231,41.9c0,0.5-0.3,0.9-0.6,0.9c-0.3,0-0.6-0.4-0.6-0.9c0-0.5,0.3-0.9,0.6-0.9
									C230.7,41,231,41.4,231,41.9z"/>
								<path class="st20" d="M229.3,47.3c0,1.4-1.2,2.6-2.6,2.6c-1.4,0-2.6-1.2-2.6-2.6c0-1.4,1.2-2.6,2.6-2.6
									C228.2,44.7,229.3,45.9,229.3,47.3z"/>
								<path class="st21" d="M230.7,51.6l-3-0.6c0,0,1.4,1.4,2.1,1.6C230.5,52.8,230.7,51.6,230.7,51.6z"/>
							</g>
							<g>
								<g>
									<path class="st14" d="M205.8,28.7c-4.3,1-8.1-0.1-9.6-0.8c-1.5-0.6-2.9-1.7-3.6-3.2c-0.7-1.5-0.8-3.2-0.4-4.8
										c0.9-4.4,4.9-8,9.4-8.5c2.6-0.3,5.3,0.4,7.3,2.1s3,4.5,2.5,7"/>
								</g>
								<g>
									<path class="st14" d="M234.6,25.3c-1.7-2.1-7.1-6.9-14.5-7.1c-4.4-0.3-7.9,0.2-11,2c-3,1.8-4.7,4.5-6.5,7.6
										c-2.2,3.7-3.5,6.1-3.4,10.3c0.1,4.3,2.1,8.2,5.4,10.8c0.9,0.7,3.2,2.6,4.4,2.7c1.4,0.2,1.4,0.5,2.4-0.5
										c1.1-1,1.8-2.2,2.3-3.5c0.6-1.5,1.1-3.1,2.5-3.8c1.2-0.5,2.4-0.2,3.7,0.2c0,0.3,0,0.6,0,0.9c0.2,2.2,1.3,4.3,2.2,6.4
										c0.9,2.1,1.6,4.4,1,6.6c-0.4,1.5-1.4,2.8-2,4.2c-1.3,2.6-1.5,5.8-0.5,8.6l0.2-0.3c-0.1-3.1,1.9-5.8,3.7-8.3
										c1.8-2.5,3.7-5.3,3.3-8.4c-0.3-1.8-1.3-3.4-2-5.1c-0.6-1.6-0.9-3.3-0.8-5c0.2-0.1,0.4-0.2,0.6-0.3c3.4-1.8,6.8-3.9,8.9-7.1
										C236.5,32.9,237,28.3,234.6,25.3z"/>
								</g>
								<g>
									<path class="st9" d="M201.7,30.8c0,0-1.3,0,0.9-3c2.2-3,8.3-9.1,8.3-9.1s1-0.6-0.8,3.2C208.4,25.7,204.3,29.2,201.7,30.8z"
										/>
									<path class="st9" d="M211.2,18.8c0,0,0.8-0.4,2.1,1.4c1.3,1.8,2.9,5.9,2.9,5.9s0.2,0.7-1.6-1
										C212.8,23.4,211.6,20.6,211.2,18.8z"/>
									<path class="st9" d="M211.2,19.1c0,0,0-0.8,1.7-1.5c1.7-0.7,5.2-1.1,5.2-1.1s0.5,0-1.2,1.1
										C215.1,18.7,212.6,19.1,211.2,19.1z"/>
									<path class="st9" d="M212.4,19c0,0.7-0.5,1.2-1.2,1.2c-0.7,0-1.2-0.5-1.2-1.2s0.5-1.2,1.2-1.2
										C211.8,17.8,212.4,18.3,212.4,19z"/>
								</g>
							</g>
							<g>
								<g>
									<path class="st18" d="M218.1,43.7c0.5,1.2,0.5,4.3-0.7,4.5c-0.8,0.2-1.7-0.1-2.4-0.7c-0.7-0.5-1.1-1.3-1.5-2.1
										c-0.4-1-0.7-2.1-0.5-3.2c0.3-1.1,1.2-2,2.3-1.9c0.8,0,1.4,0.6,1.9,1.2C217.7,42.2,217.9,42.9,218.1,43.7"/>
								</g>
								<g>
									<path class="st19" d="M217.8,46.6c-3.3,0-4.7-2.9-4.2-5.4c-0.3,0.3-0.4,0.7-0.5,1.1c-0.3,1.1,0,2.2,0.5,3.2
										c0.3,0.8,0.8,1.5,1.5,2.1c0.7,0.5,1.6,0.9,2.4,0.7c0.6-0.1,0.9-0.8,1-1.7C218.2,46.6,218,46.6,217.8,46.6z"/>
								</g>
							</g>
						</g>
					</g>
					<g>
						<g>
							<path class="st18" d="M262.8,202.5c0.5,4.5,1.5,9.3-2.5,16.4c-0.4,0.8-1.1,1.5-1.2,2.4c-0.2,1.6,1.4,2.9,2.9,3.4
								c1.5,0.5,3.2,0.6,4.6,1.3c1.7,0.9,2.8,2.6,4.2,4c1.8,1.8,4.2,3.1,6.8,3.5c0.3,0.1,0.7,0,0.8-0.2c0-0.1,0-0.3-0.1-0.4
								c-0.6-1.6-2.3-2.6-3.4-3.9c-1.1-1.3-1.6-3-2.4-4.5c-0.7-1.2-1.8-3.5-2.3-4.8c-0.9-2.1-0.5-4.3,0-6.5c0.5-2.2,1.6-7.5,2.4-9.8
								"/>
						</g>
						<g>
							<path class="st22" d="M208,131.5c12.4-4.1,25.6-6,38.7-5.5c9.7,0.4,20.2,2.5,26.4,10c4.5,5.4,4.9,8,5.4,15
								c0.4,6.3-0.5,16.9-1,23.3c-0.9,10.8-1.2,21.9-3.6,32.4c-0.1,0.3-0.2,0.7-0.4,1c-0.3,0.3-0.6,0.4-1,0.5
								c-3,0.8-6.2,0.9-9.2,0.3c-0.4-0.1-0.9-0.2-1.2-0.5c-0.3-0.3-0.4-0.8-0.5-1.3c-1-7.5-1.8-19.1-2.5-26.6c-0.5-6-0.4-8-2.4-13.7
								c-0.5-1.5-1.1-3.1-2.3-4.3c-2.3-2.4-6-2.6-9.3-2.4c-11.2,0.6-22.5,3.4-33.4,1.1"/>
						</g>
						<g>
							<path class="st18" d="M248.4,159.4c-0.7,4.5-3.2,8.6-6.7,11.5c-0.7,0.6-1.5,1.1-1.8,2c-0.6,1.5,0.5,3.2,1.9,4.1
								c1.3,0.9,2.9,1.4,4.1,2.5c1.4,1.3,2,3.3,3,5c1.3,2.3,3.2,4.1,5.6,5.2c0.3,0.1,0.6,0.2,0.8,0c0.1-0.1,0.1-0.3,0.1-0.4
								c-0.2-1.7-1.5-3.1-2.2-4.7c-0.7-1.6-0.7-3.3-1.1-5c-0.3-1.4-0.8-3.9-0.9-5.3c-0.3-2.2,0.5-3.3,1.5-5.3c1.1-2,3.9-5.5,5.4-7.5
								"/>
						</g>
						<g>
							<path class="st23" d="M184.4,138.7c-0.5,5.3-0.7,11.4,2.5,15.7c4.6,6.4,13.9,7.6,21.8,8c7.9,0.4,15.8-0.3,22.6-4.3
								c6.8-4,12.7-9.3,18.3-14.9c8.1-8.1,15.7-16.7,23.1-25.6c-12,11.8-23.3,25.3-27.3,41.6c-0.1,0.3-0.2,0.7-0.1,1
								c0.1,0.5,0.6,0.7,1,1c3.3,1.8,6.7,3.6,10,5.4c0.5,0.2,1,0.5,1.5,0.4c0.6-0.1,1.1-0.6,1.5-1.1c5.4-6.4,10.2-13.3,14.9-20.3
								c6.7-10.1,13.4-21,14.2-33.1c0.2-3.1-0.1-6.5-2.2-8.7c-2.3-2.5-6.1-2.9-9.5-2.9c-14,0.1-29,8.9-41.5,15.2
								c-12.5,6.3-27,23-35.9,4.2"/>
						</g>
					</g>
					<g>
						<path class="st9" d="M286.4,79l17.3-22.4c0.5-0.6,1.4-0.3,1.5,0.4l1.4,16.7l-10.6,16.6L286.4,79z"/>
						<polygon class="st24" points="278.2,83.4 302.1,55.9 305.9,73.4 305.9,73.4 						"/>
						<polygon class="st4" points="275.5,83.4 287.9,60.9 306.5,73.8 						"/>
						<path class="st9" d="M264.5,93.4c3.1-5.1,13.9-22.1,16.9-26.8c0.4-0.7,1.3-1,2.1-0.7l23.1,8l-17.2,27
							c-0.3,0.4-0.7,0.6-1.2,0.5l-22.8-6.1C264.4,95,264,94.1,264.5,93.4z"/>
						<path class="st25" d="M306,73.6c-0.3,1-0.9,1.9-2,2.5c-3,1.8-5.1,5-7.9,7.2c-2.8,2.2-5.9,4.4-9.1,6.1
							c-6.4,3.5-14.6,5.3-21.9,5.7c0,0,0,0,0.1,0l22.8,6.1c0.5,0.1,0.9-0.1,1.2-0.5l17.2-27L306,73.6z"/>
					</g>
					<g>
						<g>
							<path class="st6" d="M206.3,59.1c-8.6,5.3-14.4,14.3-17.7,23.8c-3.2,9.6-4.1,19.7-4.3,29.8c-0.2,10.1,0.1,20.2-0.9,30.2
								c-0.1,0.7,0,1.6,0.7,1.8c0.4,0.1,0.9-0.2,1.2-0.5c10.1-8.3,23.1-11.8,34.7-17.9c0.7-0.4,1.4-0.8,1.8-1.4
								c0.3-0.4,0.4-0.9,0.5-1.4c0.4-1.8,0.9-3.7,1.3-5.5c2-8,3.9-16.1,4.3-24.4c0.3-8.3-1.6-14.7-6-21.6c-0.8-1.3-4-6.9-5.1-8
								C214.1,61.3,210.6,63.1,206.3,59.1"/>
						</g>
						<g>
							<g>
								<path class="st26" d="M223.9,72.5c-0.7,1.5-2,2.6-3.9,2.5c-6.9-0.4-14.3-0.4-21.2-1.5c-0.7,8,0.8,16.4,5.3,23.2
									c5.1,7.5,13,12.3,21,16.2c1.5-6.4,2.8-12.8,3-19.3C228.3,86.4,227.2,79,223.9,72.5z"/>
							</g>
							<g>
								<g>
									<path class="st18" d="M277.3,95c1.3,0.7,3,0.1,4-1c1-1.1,1.7-2.2,2.7-3.4c1.1-1.4,3.4-2.5,5.6-4c0.3-0.2,0.6,0.1,0.5,0.4
										c-0.4,1.3-2.4,3.5-2.7,4.7c0,0.1-0.1,0.3,0,0.4c0.1,0.1,0.3,0.1,0.4,0.1c2.5-0.2,4.3-2.3,6.6-3.2c0.3-0.1,0.7-0.2,1.1-0.1
										c0.7,0.2,0.2,1.7,0,2.5c-0.4,1.6-1.6,3.3-2.9,4.4c-4.4,3.9-9.7,4.7-15.5,3.9"/>
								</g>
								<g>
									<g>
										<path class="st6" d="M199.1,68.7c3.2-2.3,7.3-2.4,11.1-1.8c7.2,1.3,13.9,5.1,19.9,9.6c5.6,4.2,11,8.9,17.1,12.2
											c8.2,4.4,17.5,5.8,26.6,5.5c1.7-0.1,3.6-0.1,5.1,0.7c1.5,0.9,2.6,3.1,1.7,4.7c-0.5,1-1.6,1.5-2.6,1.9
											c-7.2,3-14.5,6-22,7.7c-7.6,1.7-15.5,2.2-22.9,0.1c-10.3-2.9-19-10.4-26.7-18.4c-2.3-2.4-4.5-4.8-6-7.9
											S195.7,73,199.1,68.7"/>
									</g>
									<g>
										<g class="st3">
											<path class="st4" d="M210.2,75.4c1.3,0,1.3-2,0-2C208.9,73.3,208.9,75.4,210.2,75.4L210.2,75.4z"/>
										</g>
										<g class="st3">
											<path class="st4" d="M226.6,97.2c1.3,0,1.3-2,0-2C225.3,95.2,225.3,97.2,226.6,97.2L226.6,97.2z"/>
										</g>
										<g class="st3">
											<path class="st4" d="M228.9,81.1c1.3,0,1.3-2,0-2C227.6,79.1,227.5,81.1,228.9,81.1L228.9,81.1z"/>
										</g>
										<g class="st3">
											<path class="st4" d="M214.4,90.2c1.3,0,1.3-2,0-2C213,88.2,213,90.2,214.4,90.2L214.4,90.2z"/>
										</g>
										<g class="st3">
											<path class="st4" d="M245.8,95.9c1.3,0,1.3-2,0-2C244.4,93.9,244.4,95.9,245.8,95.9L245.8,95.9z"/>
										</g>
										<g class="st3">
											<path class="st4" d="M242.3,107.7c1.3,0,1.3-2,0-2C241,105.7,241,107.7,242.3,107.7L242.3,107.7z"/>
										</g>
										<g class="st3">
											<path class="st4" d="M265.7,100.4c1.3,0,1.3-2,0-2C264.4,98.4,264.4,100.4,265.7,100.4L265.7,100.4z"/>
										</g>
									</g>
								</g>
							</g>
						</g>
						<g>
							<g class="st3">
								<path class="st4" d="M217.9,121.1c1.3,0,1.3-2,0-2C216.6,119.1,216.6,121.1,217.9,121.1L217.9,121.1z"/>
							</g>
							<g class="st3">
								<path class="st4" d="M205.1,105.3c1.3,0,1.3-2,0-2C203.8,103.3,203.8,105.3,205.1,105.3L205.1,105.3z"/>
							</g>
							<g class="st3">
								<path class="st4" d="M201.6,125.9c1.3,0,1.3-2,0-2C200.3,123.9,200.3,125.9,201.6,125.9L201.6,125.9z"/>
							</g>
							<g class="st3">
								<path class="st4" d="M189.3,137.2c1.3,0,1.3-2,0-2C188,135.2,188,137.2,189.3,137.2L189.3,137.2z"/>
							</g>
							<g class="st3">
								<path class="st4" d="M189.8,111.9c1.3,0,1.3-2,0-2C188.5,109.8,188.5,111.9,189.8,111.9L189.8,111.9z"/>
							</g>
							<g class="st3">
								<path class="st4" d="M196.8,92.1c1.3,0,1.3-2,0-2C195.5,90.1,195.5,92.1,196.8,92.1L196.8,92.1z"/>
							</g>
							<g class="st3">
								<path class="st4" d="M196.8,76.8c1.3,0,1.3-2,0-2C195.5,74.8,195.5,76.8,196.8,76.8L196.8,76.8z"/>
							</g>
							<g class="st3">
								<path class="st4" d="M221.7,109.2c1.3,0,1.3-2,0-2C220.4,107.1,220.4,109.2,221.7,109.2L221.7,109.2z"/>
							</g>
							<g class="st3">
								<path class="st4" d="M187.4,95.9c1.3,0,1.3-2,0-2C186.1,93.9,186.1,95.9,187.4,95.9L187.4,95.9z"/>
							</g>
						</g>
					</g>
				</g>
			</g>
		</g>
	</g>
</g>
</svg>
